<mxfile host="app.diagrams.net" agent="Mozilla/5.0 (Windows NT 10.0; Win64; x64) AppleWebKit/537.36 (KHTML, like Gecko) Chrome/129.0.0.0 Safari/537.36" version="24.7.16">
  <diagram name="Page-1" id="lRpdXzTvYQ2GezhW0-wi">
    <mxGraphModel dx="3218" dy="1901" grid="1" gridSize="10" guides="1" tooltips="1" connect="1" arrows="1" fold="1" page="1" pageScale="1" pageWidth="1169" pageHeight="827" math="0" shadow="0">
      <root>
        <mxCell id="0" />
        <mxCell id="1" parent="0" />
        <mxCell id="61uXr8QTfpye8QH7Ok3g-214" value="" style="ellipse;whiteSpace=wrap;html=1;aspect=fixed;" vertex="1" parent="1">
          <mxGeometry x="-224" y="504" width="39" height="39" as="geometry" />
        </mxCell>
        <mxCell id="4AbDWoIpbRsuX7BxDNey-69" value="" style="ellipse;whiteSpace=wrap;html=1;aspect=fixed;" vertex="1" parent="1">
          <mxGeometry x="48.75" y="672" width="30" height="30" as="geometry" />
        </mxCell>
        <mxCell id="a0pfKgJFgjEHsrckhtJ3-18" value="" style="endArrow=none;html=1;rounded=0;fontFamily=Helvetica;fontSize=12;fontColor=default;" parent="1" edge="1">
          <mxGeometry width="50" height="50" relative="1" as="geometry">
            <mxPoint y="240" as="sourcePoint" />
            <mxPoint x="1170" y="240" as="targetPoint" />
          </mxGeometry>
        </mxCell>
        <mxCell id="a0pfKgJFgjEHsrckhtJ3-19" value="" style="endArrow=none;html=1;rounded=0;fontFamily=Helvetica;fontSize=12;fontColor=default;" parent="1" edge="1">
          <mxGeometry width="50" height="50" relative="1" as="geometry">
            <mxPoint y="560" as="sourcePoint" />
            <mxPoint x="1170" y="560" as="targetPoint" />
          </mxGeometry>
        </mxCell>
        <mxCell id="a0pfKgJFgjEHsrckhtJ3-20" value="" style="endArrow=none;html=1;rounded=0;fontFamily=Helvetica;fontSize=12;fontColor=default;entryX=0.101;entryY=0.089;entryDx=0;entryDy=0;entryPerimeter=0;" parent="1" edge="1" target="a0pfKgJFgjEHsrckhtJ3-33">
          <mxGeometry width="50" height="50" relative="1" as="geometry">
            <mxPoint x="280" y="830" as="sourcePoint" />
            <mxPoint x="280" y="240" as="targetPoint" />
          </mxGeometry>
        </mxCell>
        <mxCell id="a0pfKgJFgjEHsrckhtJ3-21" value="" style="endArrow=none;html=1;rounded=0;fontFamily=Helvetica;fontSize=12;fontColor=default;" parent="1" edge="1">
          <mxGeometry width="50" height="50" relative="1" as="geometry">
            <mxPoint x="600" y="830" as="sourcePoint" />
            <mxPoint x="600" y="240" as="targetPoint" />
          </mxGeometry>
        </mxCell>
        <mxCell id="a0pfKgJFgjEHsrckhtJ3-22" value="" style="endArrow=none;html=1;rounded=0;fontFamily=Helvetica;fontSize=12;fontColor=default;" parent="1" edge="1">
          <mxGeometry width="50" height="50" relative="1" as="geometry">
            <mxPoint x="910" y="830" as="sourcePoint" />
            <mxPoint x="910" y="240" as="targetPoint" />
          </mxGeometry>
        </mxCell>
        <mxCell id="a0pfKgJFgjEHsrckhtJ3-23" value="&lt;p style=&quot;margin-left:1.0in;mso-add-space:auto;&lt;br/&gt;text-indent:-.5in;mso-list:l0 level1 lfo1&quot; class=&quot;MsoListParagraph&quot;&gt;&lt;b&gt;&lt;span style=&quot;font-size:14.0pt;mso-bidi-font-size:&lt;br/&gt;12.0pt;line-height:115%;font-family:&amp;quot;Times New Roman&amp;quot;,serif;mso-fareast-font-family:&lt;br/&gt;&amp;quot;Times New Roman&amp;quot;&quot;&gt;(i)&lt;span style=&quot;font-variant-numeric: normal; font-variant-east-asian: normal; font-variant-alternates: normal; font-size-adjust: none; font-kerning: auto; font-optical-sizing: auto; font-feature-settings: normal; font-variation-settings: normal; font-variant-position: normal; font-weight: normal; font-stretch: normal; font-size: 7pt; line-height: normal; font-family: &amp;quot;Times New Roman&amp;quot;;&quot;&gt;&amp;nbsp;&amp;nbsp;&amp;nbsp;&amp;nbsp;&amp;nbsp;&amp;nbsp;&amp;nbsp;&amp;nbsp;&amp;nbsp;&amp;nbsp;&amp;nbsp;&amp;nbsp;&lt;br/&gt;&lt;/span&gt;&lt;/span&gt;&lt;/b&gt;&lt;span dir=&quot;LTR&quot;&gt;&lt;/span&gt;&lt;span style=&quot;font-size:&lt;br/&gt;14.0pt;mso-bidi-font-size:12.0pt;line-height:115%;font-family:&amp;quot;Times New Roman&amp;quot;,serif&quot;&gt;Identifiers&lt;/span&gt;&lt;/p&gt;" style="text;html=1;align=center;verticalAlign=middle;whiteSpace=wrap;rounded=0;fontFamily=Helvetica;fontSize=12;fontColor=default;" parent="1" vertex="1">
          <mxGeometry x="8.75" y="-60" width="60" height="30" as="geometry" />
        </mxCell>
        <mxCell id="a0pfKgJFgjEHsrckhtJ3-24" value="&lt;p style=&quot;margin-left:1.0in;mso-add-space:auto;&lt;br/&gt;text-indent:-.5in;mso-list:l0 level1 lfo1&quot; class=&quot;MsoListParagraph&quot;&gt;&lt;b&gt;&lt;span style=&quot;font-size:14.0pt;mso-bidi-font-size:&lt;br/&gt;12.0pt;line-height:115%;font-family:&amp;quot;Times New Roman&amp;quot;,serif;mso-fareast-font-family:&lt;br/&gt;&amp;quot;Times New Roman&amp;quot;&quot;&gt;(i)&lt;span style=&quot;font-variant-numeric: normal; font-variant-east-asian: normal; font-variant-alternates: normal; font-size-adjust: none; font-kerning: auto; font-optical-sizing: auto; font-feature-settings: normal; font-variation-settings: normal; font-variant-position: normal; font-weight: normal; font-stretch: normal; font-size: 7pt; line-height: normal; font-family: &amp;quot;Times New Roman&amp;quot;;&quot;&gt;&amp;nbsp;&amp;nbsp;&amp;nbsp;&amp;nbsp;&amp;nbsp;&amp;nbsp;&amp;nbsp;&amp;nbsp;&amp;nbsp;&amp;nbsp;&amp;nbsp;&amp;nbsp;&lt;br/&gt;&lt;/span&gt;&lt;/span&gt;&lt;/b&gt;&lt;span dir=&quot;LTR&quot;&gt;&lt;/span&gt;&lt;span style=&quot;font-size:&lt;br/&gt;14.0pt;mso-bidi-font-size:12.0pt;line-height:115%;font-family:&amp;quot;Times New Roman&amp;quot;,serif&quot;&gt;White&lt;br/&gt;Spaces&lt;/span&gt;&lt;/p&gt;" style="text;html=1;align=center;verticalAlign=middle;whiteSpace=wrap;rounded=0;fontFamily=Helvetica;fontSize=12;fontColor=default;" parent="1" vertex="1">
          <mxGeometry x="285" y="-60" width="60" height="30" as="geometry" />
        </mxCell>
        <mxCell id="a0pfKgJFgjEHsrckhtJ3-25" value="&lt;p style=&quot;margin-left:1.0in;mso-add-space:auto;&lt;br/&gt;text-indent:-.5in;mso-list:l0 level1 lfo1&quot; class=&quot;MsoListParagraph&quot;&gt;&lt;b&gt;&lt;span style=&quot;font-size:14.0pt;mso-bidi-font-size:&lt;br/&gt;12.0pt;line-height:115%;font-family:&amp;quot;Times New Roman&amp;quot;,serif;mso-fareast-font-family:&lt;br/&gt;&amp;quot;Times New Roman&amp;quot;&quot;&gt;(i)&lt;span style=&quot;font-variant-numeric: normal; font-variant-east-asian: normal; font-variant-alternates: normal; font-size-adjust: none; font-kerning: auto; font-optical-sizing: auto; font-feature-settings: normal; font-variation-settings: normal; font-variant-position: normal; font-weight: normal; font-stretch: normal; font-size: 7pt; line-height: normal; font-family: &amp;quot;Times New Roman&amp;quot;;&quot;&gt;&amp;nbsp;&amp;nbsp;&amp;nbsp;&amp;nbsp;&amp;nbsp;&amp;nbsp;&amp;nbsp;&amp;nbsp;&amp;nbsp;&amp;nbsp;&amp;nbsp;&amp;nbsp;&lt;br&gt;&lt;/span&gt;&lt;/span&gt;&lt;/b&gt;&lt;/p&gt;&lt;div style=&quot;text-align: left;&quot;&gt;&lt;span style=&quot;font-family: &amp;quot;Times New Roman&amp;quot;, serif; background-color: initial; font-size: 12px;&quot;&gt;Arithmetic&amp;nbsp;&lt;/span&gt;&lt;span style=&quot;background-color: initial; font-family: &amp;quot;Times New Roman&amp;quot;, serif; font-size: 12px;&quot;&gt;Operators (+&lt;/span&gt;&lt;span style=&quot;font-family: &amp;quot;Times New Roman&amp;quot;, serif; background-color: initial; font-size: 12px; text-align: center;&quot;&gt;, -, *, /, %)&lt;/span&gt;&lt;/div&gt;&lt;p&gt;&lt;/p&gt;" style="text;html=1;align=center;verticalAlign=middle;whiteSpace=wrap;rounded=0;fontFamily=Helvetica;fontSize=12;fontColor=default;" parent="1" vertex="1">
          <mxGeometry x="490" y="-510" width="280" height="50" as="geometry" />
        </mxCell>
        <mxCell id="a0pfKgJFgjEHsrckhtJ3-26" value="&lt;p style=&quot;margin-left:1.0in;mso-add-space:auto;&lt;br/&gt;text-indent:-.5in;mso-list:l0 level1 lfo1&quot; class=&quot;MsoListParagraph&quot;&gt;&lt;b&gt;&lt;span style=&quot;font-size:14.0pt;mso-bidi-font-size:&lt;br/&gt;12.0pt;line-height:115%;font-family:&amp;quot;Times New Roman&amp;quot;,serif;mso-fareast-font-family:&lt;br/&gt;&amp;quot;Times New Roman&amp;quot;&quot;&gt;(i)&lt;span style=&quot;font-variant-numeric: normal; font-variant-east-asian: normal; font-variant-alternates: normal; font-size-adjust: none; font-kerning: auto; font-optical-sizing: auto; font-feature-settings: normal; font-variation-settings: normal; font-variant-position: normal; font-weight: normal; font-stretch: normal; font-size: 7pt; line-height: normal; font-family: &amp;quot;Times New Roman&amp;quot;;&quot;&gt;&amp;nbsp;&amp;nbsp;&amp;nbsp;&amp;nbsp;&amp;nbsp;&amp;nbsp;&amp;nbsp;&amp;nbsp;&amp;nbsp;&amp;nbsp;&amp;nbsp;&amp;nbsp;&lt;br/&gt;&lt;/span&gt;&lt;/span&gt;&lt;/b&gt;&lt;span dir=&quot;LTR&quot;&gt;&lt;/span&gt;&lt;span style=&quot;font-size:&lt;br/&gt;14.0pt;mso-bidi-font-size:12.0pt;line-height:115%;font-family:&amp;quot;Times New Roman&amp;quot;,serif&quot;&gt;Arithmetic&lt;br/&gt;Assignment Operators&amp;nbsp;&amp;nbsp;&amp;nbsp;&amp;nbsp;&amp;nbsp;&amp;nbsp;&amp;nbsp;&amp;nbsp;&amp;nbsp;&amp;nbsp;&amp;nbsp;&amp;nbsp;&amp;nbsp;&amp;nbsp;&amp;nbsp;&amp;nbsp; (+=,&lt;br/&gt;- =, *=, /=, %=)&lt;/span&gt;&lt;/p&gt;" style="text;html=1;align=center;verticalAlign=middle;whiteSpace=wrap;rounded=0;fontFamily=Helvetica;fontSize=12;fontColor=default;" parent="1" vertex="1">
          <mxGeometry x="905" y="-500" width="60" height="30" as="geometry" />
        </mxCell>
        <mxCell id="a0pfKgJFgjEHsrckhtJ3-27" value="&lt;p style=&quot;margin-left:1.0in;mso-add-space:auto;&lt;br/&gt;text-indent:-.5in;mso-list:l0 level1 lfo1&quot; class=&quot;MsoListParagraph&quot;&gt;&lt;b&gt;&lt;span style=&quot;font-size:14.0pt;mso-bidi-font-size:&lt;br/&gt;12.0pt;line-height:115%;font-family:&amp;quot;Times New Roman&amp;quot;,serif;mso-fareast-font-family:&lt;br/&gt;&amp;quot;Times New Roman&amp;quot;&quot;&gt;(i)&lt;span style=&quot;font-variant-numeric: normal; font-variant-east-asian: normal; font-variant-alternates: normal; font-size-adjust: none; font-kerning: auto; font-optical-sizing: auto; font-feature-settings: normal; font-variation-settings: normal; font-variant-position: normal; font-weight: normal; font-stretch: normal; font-size: 7pt; line-height: normal; font-family: &amp;quot;Times New Roman&amp;quot;;&quot;&gt;&amp;nbsp;&amp;nbsp;&amp;nbsp;&amp;nbsp;&amp;nbsp;&amp;nbsp;&amp;nbsp;&amp;nbsp;&amp;nbsp;&amp;nbsp;&amp;nbsp;&amp;nbsp;&lt;br&gt;&lt;/span&gt;&lt;/span&gt;&lt;/b&gt;&lt;span dir=&quot;LTR&quot;&gt;&lt;/span&gt;&lt;span style=&quot;font-size:&lt;br/&gt;14.0pt;mso-bidi-font-size:12.0pt;line-height:115%;font-family:&amp;quot;Times New Roman&amp;quot;,serif&quot;&gt;Relational Operators (&amp;lt;, &amp;lt;=, &amp;gt;, &amp;gt;=, ==, !=)&lt;/span&gt;&lt;/p&gt;" style="text;html=1;align=center;verticalAlign=middle;whiteSpace=wrap;rounded=0;fontFamily=Helvetica;fontSize=12;fontColor=default;" parent="1" vertex="1">
          <mxGeometry x="-330" y="250" width="310" height="30" as="geometry" />
        </mxCell>
        <mxCell id="a0pfKgJFgjEHsrckhtJ3-28" value="&lt;p style=&quot;margin-left:1.0in;mso-add-space:auto;&lt;br/&gt;text-indent:-.5in;mso-list:l0 level1 lfo1&quot; class=&quot;MsoListParagraph&quot;&gt;&lt;b&gt;&lt;span style=&quot;font-size:14.0pt;mso-bidi-font-size:&lt;br/&gt;12.0pt;line-height:115%;font-family:&amp;quot;Times New Roman&amp;quot;,serif;mso-fareast-font-family:&lt;br/&gt;&amp;quot;Times New Roman&amp;quot;&quot;&gt;(i)&lt;span style=&quot;font-variant-numeric: normal; font-variant-east-asian: normal; font-variant-alternates: normal; font-size-adjust: none; font-kerning: auto; font-optical-sizing: auto; font-feature-settings: normal; font-variation-settings: normal; font-variant-position: normal; font-weight: normal; font-stretch: normal; font-size: 7pt; line-height: normal; font-family: &amp;quot;Times New Roman&amp;quot;;&quot;&gt;&amp;nbsp;&amp;nbsp;&amp;nbsp;&amp;nbsp;&amp;nbsp;&amp;nbsp;&amp;nbsp;&amp;nbsp;&amp;nbsp;&amp;nbsp;&amp;nbsp;&amp;nbsp;&lt;br&gt;&lt;/span&gt;&lt;/span&gt;&lt;/b&gt;&lt;span dir=&quot;LTR&quot;&gt;&lt;/span&gt;&lt;span style=&quot;font-size:&lt;br/&gt;14.0pt;mso-bidi-font-size:12.0pt;line-height:115%;font-family:&amp;quot;Times New Roman&amp;quot;,serif&quot;&gt;Logical Operators&amp;nbsp; &amp;nbsp; &amp;nbsp;(&amp;amp;&amp;amp;, || ,&amp;nbsp; !)&lt;/span&gt;&lt;/p&gt;" style="text;html=1;align=center;verticalAlign=middle;whiteSpace=wrap;rounded=0;fontFamily=Helvetica;fontSize=12;fontColor=default;" parent="1" vertex="1">
          <mxGeometry x="280" y="250" width="270" height="30" as="geometry" />
        </mxCell>
        <mxCell id="a0pfKgJFgjEHsrckhtJ3-29" value="&lt;p style=&quot;margin-left:1.0in;mso-add-space:auto;&lt;br/&gt;text-indent:-.5in;mso-list:l0 level1 lfo1&quot; class=&quot;MsoListParagraph&quot;&gt;&lt;b&gt;&lt;span style=&quot;font-size:14.0pt;mso-bidi-font-size:&lt;br/&gt;12.0pt;line-height:115%;font-family:&amp;quot;Times New Roman&amp;quot;,serif;mso-fareast-font-family:&lt;br/&gt;&amp;quot;Times New Roman&amp;quot;&quot;&gt;(i)&lt;span style=&quot;font-variant-numeric: normal; font-variant-east-asian: normal; font-variant-alternates: normal; font-size-adjust: none; font-kerning: auto; font-optical-sizing: auto; font-feature-settings: normal; font-variation-settings: normal; font-variant-position: normal; font-weight: normal; font-stretch: normal; font-size: 7pt; line-height: normal; font-family: &amp;quot;Times New Roman&amp;quot;;&quot;&gt;&amp;nbsp;&amp;nbsp;&amp;nbsp;&amp;nbsp;&amp;nbsp;&amp;nbsp;&amp;nbsp;&amp;nbsp;&amp;nbsp;&amp;nbsp;&amp;nbsp;&amp;nbsp;&lt;br/&gt;&lt;/span&gt;&lt;/span&gt;&lt;/b&gt;&lt;span dir=&quot;LTR&quot;&gt;&lt;/span&gt;&lt;span style=&quot;font-size:&lt;br/&gt;14.0pt;mso-bidi-font-size:12.0pt;line-height:115%;font-family:&amp;quot;Times New Roman&amp;quot;,serif&quot;&gt;Increment/Decrement&lt;br/&gt;Operators&amp;nbsp;&amp;nbsp;&amp;nbsp;&amp;nbsp;&amp;nbsp;&amp;nbsp;&amp;nbsp;&amp;nbsp;&amp;nbsp;&amp;nbsp;&amp;nbsp;&amp;nbsp;&amp;nbsp;&amp;nbsp;&amp;nbsp;&amp;nbsp;&amp;nbsp;&amp;nbsp;&amp;nbsp; (++, - -)&lt;/span&gt;&lt;/p&gt;" style="text;html=1;align=center;verticalAlign=middle;whiteSpace=wrap;rounded=0;fontFamily=Helvetica;fontSize=12;fontColor=default;" parent="1" vertex="1">
          <mxGeometry x="700" y="260" width="60" height="30" as="geometry" />
        </mxCell>
        <mxCell id="a0pfKgJFgjEHsrckhtJ3-31" value="&lt;p style=&quot;margin-left:1.0in;mso-add-space:auto;&lt;br/&gt;text-indent:-.5in;mso-list:l0 level1 lfo1&quot; class=&quot;MsoListParagraph&quot;&gt;&lt;b&gt;&lt;span style=&quot;font-size:14.0pt;mso-bidi-font-size:&lt;br/&gt;12.0pt;line-height:115%;font-family:&amp;quot;Times New Roman&amp;quot;,serif;mso-fareast-font-family:&lt;br/&gt;&amp;quot;Times New Roman&amp;quot;&quot;&gt;(i)&lt;span style=&quot;font-variant-numeric: normal; font-variant-east-asian: normal; font-variant-alternates: normal; font-size-adjust: none; font-kerning: auto; font-optical-sizing: auto; font-feature-settings: normal; font-variation-settings: normal; font-variant-position: normal; font-weight: normal; font-stretch: normal; font-size: 7pt; line-height: normal; font-family: &amp;quot;Times New Roman&amp;quot;;&quot;&gt;&amp;nbsp;&amp;nbsp;&amp;nbsp;&amp;nbsp;&amp;nbsp;&amp;nbsp;&amp;nbsp;&amp;nbsp;&amp;nbsp;&amp;nbsp;&amp;nbsp;&amp;nbsp;&lt;br/&gt;&lt;/span&gt;&lt;/span&gt;&lt;/b&gt;&lt;span dir=&quot;LTR&quot;&gt;&lt;/span&gt;&lt;span style=&quot;font-size:&lt;br/&gt;14.0pt;mso-bidi-font-size:12.0pt;line-height:115%;font-family:&amp;quot;Times New Roman&amp;quot;,serif&quot;&gt;Assignment&lt;br/&gt;Operator&lt;/span&gt;&lt;/p&gt;" style="text;html=1;align=center;verticalAlign=middle;whiteSpace=wrap;rounded=0;fontFamily=Helvetica;fontSize=12;fontColor=default;" parent="1" vertex="1">
          <mxGeometry x="1020" y="250" width="60" height="30" as="geometry" />
        </mxCell>
        <mxCell id="a0pfKgJFgjEHsrckhtJ3-32" value="&lt;p style=&quot;margin-left:1.0in;mso-add-space:auto;&lt;br/&gt;text-indent:-.5in;mso-list:l0 level1 lfo1&quot; class=&quot;MsoListParagraph&quot;&gt;&lt;b&gt;&lt;span style=&quot;font-size:14.0pt;mso-bidi-font-size:&lt;br/&gt;12.0pt;line-height:115%;font-family:&amp;quot;Times New Roman&amp;quot;,serif;mso-fareast-font-family:&lt;br/&gt;&amp;quot;Times New Roman&amp;quot;&quot;&gt;(i)&lt;span style=&quot;font-variant-numeric: normal; font-variant-east-asian: normal; font-variant-alternates: normal; font-size-adjust: none; font-kerning: auto; font-optical-sizing: auto; font-feature-settings: normal; font-variation-settings: normal; font-variant-position: normal; font-weight: normal; font-stretch: normal; font-size: 7pt; line-height: normal; font-family: &amp;quot;Times New Roman&amp;quot;;&quot;&gt;&amp;nbsp;&amp;nbsp;&amp;nbsp;&amp;nbsp;&amp;nbsp;&amp;nbsp;&amp;nbsp;&amp;nbsp;&amp;nbsp;&amp;nbsp;&amp;nbsp;&amp;nbsp;&lt;br/&gt;&lt;/span&gt;&lt;/span&gt;&lt;/b&gt;&lt;span dir=&quot;LTR&quot;&gt;&lt;/span&gt;&lt;span style=&quot;font-size:&lt;br/&gt;14.0pt;mso-bidi-font-size:12.0pt;line-height:115%;font-family:&amp;quot;Times New Roman&amp;quot;,serif&quot;&gt;Single&lt;br/&gt;Line and Multi Line Comments&lt;/span&gt;&lt;/p&gt;" style="text;html=1;align=center;verticalAlign=middle;whiteSpace=wrap;rounded=0;fontFamily=Helvetica;fontSize=12;fontColor=default;" parent="1" vertex="1">
          <mxGeometry x="-30" y="550" width="262.5" height="30" as="geometry" />
        </mxCell>
        <mxCell id="a0pfKgJFgjEHsrckhtJ3-33" value="&lt;p style=&quot;margin-left:1.0in;mso-add-space:auto;&lt;br/&gt;text-indent:-.5in;mso-list:l0 level1 lfo1&quot; class=&quot;MsoListParagraph&quot;&gt;&lt;b&gt;&lt;span style=&quot;font-size:14.0pt;mso-bidi-font-size:&lt;br/&gt;12.0pt;line-height:115%;font-family:&amp;quot;Times New Roman&amp;quot;,serif;mso-fareast-font-family:&lt;br/&gt;&amp;quot;Times New Roman&amp;quot;&quot;&gt;(i)&lt;span style=&quot;font-variant-numeric: normal; font-variant-east-asian: normal; font-variant-alternates: normal; font-size-adjust: none; font-kerning: auto; font-optical-sizing: auto; font-feature-settings: normal; font-variation-settings: normal; font-variant-position: normal; font-weight: normal; font-stretch: normal; font-size: 7pt; line-height: normal; font-family: &amp;quot;Times New Roman&amp;quot;;&quot;&gt;&amp;nbsp;&amp;nbsp;&amp;nbsp;&amp;nbsp;&amp;nbsp;&amp;nbsp;&amp;nbsp;&amp;nbsp;&amp;nbsp;&amp;nbsp;&amp;nbsp;&amp;nbsp;&lt;br/&gt;&lt;/span&gt;&lt;/span&gt;&lt;/b&gt;&lt;span dir=&quot;LTR&quot;&gt;&lt;/span&gt;&lt;span style=&quot;font-size:&lt;br/&gt;14.0pt;mso-bidi-font-size:12.0pt;line-height:115%;font-family:&amp;quot;Times New Roman&amp;quot;,serif&quot;&gt;Integers&lt;br/&gt;and floating point/real numbers&lt;/span&gt;&lt;/p&gt;" style="text;html=1;align=center;verticalAlign=middle;whiteSpace=wrap;rounded=0;fontFamily=Helvetica;fontSize=12;fontColor=default;" parent="1" vertex="1">
          <mxGeometry x="250" y="560" width="300" height="30" as="geometry" />
        </mxCell>
        <mxCell id="a0pfKgJFgjEHsrckhtJ3-34" value="&lt;p style=&quot;margin-left:1.0in;mso-add-space:auto;&lt;br/&gt;text-indent:-.5in;mso-list:l0 level1 lfo1&quot; class=&quot;MsoListParagraph&quot;&gt;&lt;b&gt;&lt;span style=&quot;font-size:14.0pt;mso-bidi-font-size:&lt;br/&gt;12.0pt;line-height:115%;font-family:&amp;quot;Times New Roman&amp;quot;,serif;mso-fareast-font-family:&lt;br/&gt;&amp;quot;Times New Roman&amp;quot;&quot;&gt;(i)&lt;span style=&quot;font-variant-numeric: normal; font-variant-east-asian: normal; font-variant-alternates: normal; font-size-adjust: none; font-kerning: auto; font-optical-sizing: auto; font-feature-settings: normal; font-variation-settings: normal; font-variant-position: normal; font-weight: normal; font-stretch: normal; font-size: 7pt; line-height: normal; font-family: &amp;quot;Times New Roman&amp;quot;;&quot;&gt;&amp;nbsp;&amp;nbsp;&amp;nbsp;&amp;nbsp;&amp;nbsp;&amp;nbsp;&amp;nbsp;&amp;nbsp;&amp;nbsp;&amp;nbsp;&amp;nbsp;&amp;nbsp;&lt;br/&gt;&lt;/span&gt;&lt;/span&gt;&lt;/b&gt;&lt;span dir=&quot;LTR&quot;&gt;&lt;/span&gt;&lt;span style=&quot;font-size:&lt;br/&gt;14.0pt;mso-bidi-font-size:12.0pt;line-height:115%;font-family:&amp;quot;Times New Roman&amp;quot;,serif&quot;&gt;Character&lt;br/&gt;and String literals&lt;/span&gt;&lt;/p&gt;" style="text;html=1;align=center;verticalAlign=middle;whiteSpace=wrap;rounded=0;fontFamily=Helvetica;fontSize=12;fontColor=default;" parent="1" vertex="1">
          <mxGeometry x="600" y="570" width="250" height="30" as="geometry" />
        </mxCell>
        <mxCell id="a0pfKgJFgjEHsrckhtJ3-35" value="&lt;p style=&quot;margin-top:0in;margin-right:0in;margin-bottom:&lt;br/&gt;0in;margin-left:1.0in;mso-add-space:auto;text-indent:-.5in;mso-list:l0 level1 lfo1&quot; class=&quot;MsoListParagraph&quot;&gt;&lt;b&gt;&lt;span style=&quot;font-size:14.0pt;mso-bidi-font-size:&lt;br/&gt;12.0pt;line-height:115%;font-family:&amp;quot;Times New Roman&amp;quot;,serif;mso-fareast-font-family:&lt;br/&gt;&amp;quot;Times New Roman&amp;quot;&quot;&gt;(i)&lt;span style=&quot;font-variant-numeric: normal; font-variant-east-asian: normal; font-variant-alternates: normal; font-size-adjust: none; font-kerning: auto; font-optical-sizing: auto; font-feature-settings: normal; font-variation-settings: normal; font-variant-position: normal; font-weight: normal; font-stretch: normal; font-size: 7pt; line-height: normal; font-family: &amp;quot;Times New Roman&amp;quot;;&quot;&gt;&amp;nbsp;&amp;nbsp;&amp;nbsp;&amp;nbsp;&amp;nbsp;&amp;nbsp;&amp;nbsp;&amp;nbsp;&amp;nbsp;&amp;nbsp;&amp;nbsp;&amp;nbsp;&lt;br/&gt;&lt;/span&gt;&lt;/span&gt;&lt;/b&gt;&lt;span dir=&quot;LTR&quot;&gt;&lt;/span&gt;&lt;span style=&quot;font-size:&lt;br/&gt;14.0pt;mso-bidi-font-size:12.0pt;line-height:115%;font-family:&amp;quot;Times New Roman&amp;quot;,serif&quot;&gt;Punctuation&lt;br/&gt;Marks&amp;nbsp;&amp;nbsp;&amp;nbsp;&amp;nbsp;&amp;nbsp;&amp;nbsp;&amp;nbsp;&amp;nbsp;&amp;nbsp;&amp;nbsp;&amp;nbsp;&amp;nbsp;&amp;nbsp;&amp;nbsp;&amp;nbsp;&amp;nbsp;&amp;nbsp;&amp;nbsp;&amp;nbsp;&amp;nbsp; ( ; | : | , | ‘&lt;br/&gt;| “ | { | } | [ | ] | ( | ) etc. )&lt;/span&gt;&lt;/p&gt;" style="text;html=1;align=center;verticalAlign=middle;whiteSpace=wrap;rounded=0;fontFamily=Helvetica;fontSize=12;fontColor=default;" parent="1" vertex="1">
          <mxGeometry x="895" y="570" width="220" height="30" as="geometry" />
        </mxCell>
        <mxCell id="61uXr8QTfpye8QH7Ok3g-5" style="edgeStyle=orthogonalEdgeStyle;rounded=0;orthogonalLoop=1;jettySize=auto;html=1;exitX=1;exitY=0.5;exitDx=0;exitDy=0;entryX=0;entryY=0.5;entryDx=0;entryDy=0;strokeWidth=1;" edge="1" parent="1" source="61uXr8QTfpye8QH7Ok3g-2" target="61uXr8QTfpye8QH7Ok3g-4">
          <mxGeometry relative="1" as="geometry" />
        </mxCell>
        <mxCell id="4AbDWoIpbRsuX7BxDNey-2" value="" style="ellipse;whiteSpace=wrap;html=1;aspect=fixed;" vertex="1" parent="1">
          <mxGeometry x="650" y="370" width="30" height="30" as="geometry" />
        </mxCell>
        <mxCell id="61uXr8QTfpye8QH7Ok3g-2" value="" style="ellipse;whiteSpace=wrap;html=1;aspect=fixed;" vertex="1" parent="1">
          <mxGeometry x="100" y="120" width="40" height="40" as="geometry" />
        </mxCell>
        <mxCell id="4AbDWoIpbRsuX7BxDNey-3" value="" style="ellipse;whiteSpace=wrap;html=1;aspect=fixed;" vertex="1" parent="1">
          <mxGeometry x="720" y="340" width="30" height="30" as="geometry" />
        </mxCell>
        <mxCell id="61uXr8QTfpye8QH7Ok3g-10" style="edgeStyle=orthogonalEdgeStyle;rounded=0;orthogonalLoop=1;jettySize=auto;html=1;exitX=1;exitY=0.5;exitDx=0;exitDy=0;entryX=0;entryY=0.5;entryDx=0;entryDy=0;" edge="1" parent="1" source="61uXr8QTfpye8QH7Ok3g-4" target="61uXr8QTfpye8QH7Ok3g-9">
          <mxGeometry relative="1" as="geometry" />
        </mxCell>
        <mxCell id="4AbDWoIpbRsuX7BxDNey-4" value="" style="ellipse;whiteSpace=wrap;html=1;aspect=fixed;" vertex="1" parent="1">
          <mxGeometry x="720" y="414" width="30" height="30" as="geometry" />
        </mxCell>
        <mxCell id="61uXr8QTfpye8QH7Ok3g-4" value="" style="ellipse;whiteSpace=wrap;html=1;aspect=fixed;" vertex="1" parent="1">
          <mxGeometry x="220" y="120" width="40" height="40" as="geometry" />
        </mxCell>
        <mxCell id="4AbDWoIpbRsuX7BxDNey-5" value="" style="ellipse;whiteSpace=wrap;html=1;aspect=fixed;" vertex="1" parent="1">
          <mxGeometry x="820" y="340" width="30" height="30" as="geometry" />
        </mxCell>
        <mxCell id="61uXr8QTfpye8QH7Ok3g-6" value="&lt;font style=&quot;font-size: 12px;&quot;&gt;Letter, _, $&lt;/font&gt;" style="text;html=1;align=center;verticalAlign=middle;whiteSpace=wrap;rounded=0;strokeWidth=1;fontSize=5;" vertex="1" parent="1">
          <mxGeometry x="144" y="112" width="70" height="20" as="geometry" />
        </mxCell>
        <mxCell id="4AbDWoIpbRsuX7BxDNey-6" value="" style="ellipse;whiteSpace=wrap;html=1;aspect=fixed;" vertex="1" parent="1">
          <mxGeometry x="820" y="414" width="30" height="30" as="geometry" />
        </mxCell>
        <mxCell id="61uXr8QTfpye8QH7Ok3g-8" value="&lt;font style=&quot;font-size: 12px;&quot;&gt;Letter, _, $, Digit&lt;/font&gt;" style="text;html=1;align=center;verticalAlign=middle;whiteSpace=wrap;rounded=0;strokeWidth=1;fontSize=5;" vertex="1" parent="1">
          <mxGeometry x="207" y="76" width="100" height="20" as="geometry" />
        </mxCell>
        <mxCell id="4AbDWoIpbRsuX7BxDNey-7" value="" style="ellipse;whiteSpace=wrap;html=1;aspect=fixed;" vertex="1" parent="1">
          <mxGeometry x="825" y="345" width="20" height="20" as="geometry" />
        </mxCell>
        <mxCell id="61uXr8QTfpye8QH7Ok3g-9" value="" style="ellipse;whiteSpace=wrap;html=1;aspect=fixed;" vertex="1" parent="1">
          <mxGeometry x="340" y="120" width="40" height="40" as="geometry" />
        </mxCell>
        <mxCell id="4AbDWoIpbRsuX7BxDNey-8" value="" style="ellipse;whiteSpace=wrap;html=1;aspect=fixed;" vertex="1" parent="1">
          <mxGeometry x="825" y="419" width="20" height="20" as="geometry" />
        </mxCell>
        <mxCell id="61uXr8QTfpye8QH7Ok3g-11" value="&lt;font style=&quot;font-size: 12px;&quot;&gt;else&lt;/font&gt;" style="text;html=1;align=center;verticalAlign=middle;whiteSpace=wrap;rounded=0;strokeWidth=1;fontSize=5;" vertex="1" parent="1">
          <mxGeometry x="268" y="110" width="60" height="22" as="geometry" />
        </mxCell>
        <mxCell id="4AbDWoIpbRsuX7BxDNey-9" value="" style="endArrow=classic;html=1;rounded=0;exitX=1;exitY=0;exitDx=0;exitDy=0;entryX=0;entryY=0.5;entryDx=0;entryDy=0;" edge="1" parent="1" source="4AbDWoIpbRsuX7BxDNey-2" target="4AbDWoIpbRsuX7BxDNey-3">
          <mxGeometry width="50" height="50" relative="1" as="geometry">
            <mxPoint x="660" y="430" as="sourcePoint" />
            <mxPoint x="710" y="380" as="targetPoint" />
          </mxGeometry>
        </mxCell>
        <mxCell id="61uXr8QTfpye8QH7Ok3g-12" value="" style="ellipse;whiteSpace=wrap;html=1;aspect=fixed;" vertex="1" parent="1">
          <mxGeometry x="345" y="125" width="30" height="30" as="geometry" />
        </mxCell>
        <mxCell id="4AbDWoIpbRsuX7BxDNey-10" value="+" style="text;html=1;align=center;verticalAlign=middle;resizable=0;points=[];autosize=1;strokeColor=none;fillColor=none;" vertex="1" parent="1">
          <mxGeometry x="680" y="345" width="30" height="30" as="geometry" />
        </mxCell>
        <mxCell id="61uXr8QTfpye8QH7Ok3g-14" value="&lt;font style=&quot;font-size: 12px;&quot;&gt;ungetc()&lt;/font&gt;&lt;div&gt;&lt;font style=&quot;font-size: 12px;&quot;&gt;return(id)&lt;/font&gt;&lt;/div&gt;" style="text;html=1;align=center;verticalAlign=middle;whiteSpace=wrap;rounded=0;strokeWidth=1;fontSize=5;" vertex="1" parent="1">
          <mxGeometry x="323" y="166" width="70" height="40" as="geometry" />
        </mxCell>
        <mxCell id="4AbDWoIpbRsuX7BxDNey-11" value="" style="endArrow=classic;html=1;rounded=0;exitX=1;exitY=0.5;exitDx=0;exitDy=0;entryX=0;entryY=0.5;entryDx=0;entryDy=0;" edge="1" parent="1" source="4AbDWoIpbRsuX7BxDNey-3" target="4AbDWoIpbRsuX7BxDNey-5">
          <mxGeometry width="50" height="50" relative="1" as="geometry">
            <mxPoint x="750" y="359" as="sourcePoint" />
            <mxPoint x="814" y="340" as="targetPoint" />
          </mxGeometry>
        </mxCell>
        <mxCell id="61uXr8QTfpye8QH7Ok3g-15" value="" style="curved=1;endArrow=classic;html=1;rounded=0;entryX=0.5;entryY=0;entryDx=0;entryDy=0;exitX=1;exitY=0;exitDx=0;exitDy=0;" edge="1" parent="1" source="61uXr8QTfpye8QH7Ok3g-2" target="61uXr8QTfpye8QH7Ok3g-2">
          <mxGeometry width="50" height="50" relative="1" as="geometry">
            <mxPoint x="132" y="122" as="sourcePoint" />
            <mxPoint x="118" y="116" as="targetPoint" />
            <Array as="points">
              <mxPoint x="148" y="106" />
              <mxPoint x="128" y="96" />
            </Array>
          </mxGeometry>
        </mxCell>
        <mxCell id="4AbDWoIpbRsuX7BxDNey-13" value="Return&lt;div&gt;(Inc)&lt;/div&gt;" style="text;html=1;align=center;verticalAlign=middle;resizable=0;points=[];autosize=1;strokeColor=none;fillColor=none;" vertex="1" parent="1">
          <mxGeometry x="840" y="335" width="60" height="40" as="geometry" />
        </mxCell>
        <mxCell id="61uXr8QTfpye8QH7Ok3g-16" value="" style="curved=1;endArrow=classic;html=1;rounded=0;entryX=0.5;entryY=0;entryDx=0;entryDy=0;exitX=1;exitY=0;exitDx=0;exitDy=0;" edge="1" parent="1">
          <mxGeometry width="50" height="50" relative="1" as="geometry">
            <mxPoint x="254" y="126" as="sourcePoint" />
            <mxPoint x="240" y="120" as="targetPoint" />
            <Array as="points">
              <mxPoint x="270" y="104" />
              <mxPoint x="250" y="94" />
            </Array>
          </mxGeometry>
        </mxCell>
        <mxCell id="4AbDWoIpbRsuX7BxDNey-14" value="Return&lt;div&gt;(Dec)&lt;/div&gt;" style="text;html=1;align=center;verticalAlign=middle;resizable=0;points=[];autosize=1;strokeColor=none;fillColor=none;" vertex="1" parent="1">
          <mxGeometry x="845" y="409" width="60" height="40" as="geometry" />
        </mxCell>
        <mxCell id="61uXr8QTfpye8QH7Ok3g-19" value="&lt;font style=&quot;font-size: 12px;&quot;&gt;White space, New line, Tab&lt;/font&gt;" style="text;html=1;align=center;verticalAlign=middle;whiteSpace=wrap;rounded=0;strokeWidth=1;fontSize=5;" vertex="1" parent="1">
          <mxGeometry x="78" y="66" width="100" height="30" as="geometry" />
        </mxCell>
        <mxCell id="4AbDWoIpbRsuX7BxDNey-18" value="" style="endArrow=classic;html=1;rounded=0;exitX=1;exitY=0.5;exitDx=0;exitDy=0;entryX=0;entryY=0.5;entryDx=0;entryDy=0;" edge="1" parent="1">
          <mxGeometry width="50" height="50" relative="1" as="geometry">
            <mxPoint x="750" y="428.76" as="sourcePoint" />
            <mxPoint x="820" y="428.76" as="targetPoint" />
          </mxGeometry>
        </mxCell>
        <mxCell id="4AbDWoIpbRsuX7BxDNey-22" value="" style="endArrow=classic;html=1;rounded=0;entryX=0;entryY=0.5;entryDx=0;entryDy=0;exitX=1;exitY=1;exitDx=0;exitDy=0;" edge="1" parent="1" source="4AbDWoIpbRsuX7BxDNey-2" target="4AbDWoIpbRsuX7BxDNey-4">
          <mxGeometry width="50" height="50" relative="1" as="geometry">
            <mxPoint x="677" y="400" as="sourcePoint" />
            <mxPoint x="720" y="377" as="targetPoint" />
          </mxGeometry>
        </mxCell>
        <mxCell id="4AbDWoIpbRsuX7BxDNey-23" value="-" style="text;html=1;align=center;verticalAlign=middle;resizable=0;points=[];autosize=1;strokeColor=none;fillColor=none;" vertex="1" parent="1">
          <mxGeometry x="690" y="389" width="30" height="30" as="geometry" />
        </mxCell>
        <mxCell id="4AbDWoIpbRsuX7BxDNey-24" value="" style="endArrow=classic;html=1;rounded=0;entryX=0;entryY=0.5;entryDx=0;entryDy=0;entryPerimeter=0;" edge="1" parent="1" target="4AbDWoIpbRsuX7BxDNey-2">
          <mxGeometry width="50" height="50" relative="1" as="geometry">
            <mxPoint x="610" y="385" as="sourcePoint" />
            <mxPoint x="710" y="380" as="targetPoint" />
          </mxGeometry>
        </mxCell>
        <mxCell id="4AbDWoIpbRsuX7BxDNey-26" value="+" style="text;html=1;align=center;verticalAlign=middle;resizable=0;points=[];autosize=1;strokeColor=none;fillColor=none;" vertex="1" parent="1">
          <mxGeometry x="770" y="335" width="30" height="30" as="geometry" />
        </mxCell>
        <mxCell id="4AbDWoIpbRsuX7BxDNey-27" value="-" style="text;html=1;align=center;verticalAlign=middle;resizable=0;points=[];autosize=1;strokeColor=none;fillColor=none;" vertex="1" parent="1">
          <mxGeometry x="770" y="400" width="30" height="30" as="geometry" />
        </mxCell>
        <mxCell id="4AbDWoIpbRsuX7BxDNey-28" value="" style="ellipse;whiteSpace=wrap;html=1;aspect=fixed;" vertex="1" parent="1">
          <mxGeometry x="960" y="365" width="30" height="30" as="geometry" />
        </mxCell>
        <mxCell id="4AbDWoIpbRsuX7BxDNey-29" value="" style="ellipse;whiteSpace=wrap;html=1;aspect=fixed;" vertex="1" parent="1">
          <mxGeometry x="1030" y="365" width="30" height="30" as="geometry" />
        </mxCell>
        <mxCell id="4AbDWoIpbRsuX7BxDNey-31" value="" style="ellipse;whiteSpace=wrap;html=1;aspect=fixed;" vertex="1" parent="1">
          <mxGeometry x="1130" y="335" width="30" height="30" as="geometry" />
        </mxCell>
        <mxCell id="4AbDWoIpbRsuX7BxDNey-32" value="" style="ellipse;whiteSpace=wrap;html=1;aspect=fixed;" vertex="1" parent="1">
          <mxGeometry x="1130" y="409" width="30" height="30" as="geometry" />
        </mxCell>
        <mxCell id="4AbDWoIpbRsuX7BxDNey-34" value="" style="ellipse;whiteSpace=wrap;html=1;aspect=fixed;" vertex="1" parent="1">
          <mxGeometry x="1135" y="414" width="20" height="20" as="geometry" />
        </mxCell>
        <mxCell id="4AbDWoIpbRsuX7BxDNey-35" value="" style="endArrow=classic;html=1;rounded=0;exitX=1;exitY=0.5;exitDx=0;exitDy=0;entryX=0;entryY=0.5;entryDx=0;entryDy=0;" edge="1" parent="1" source="4AbDWoIpbRsuX7BxDNey-28" target="4AbDWoIpbRsuX7BxDNey-29">
          <mxGeometry width="50" height="50" relative="1" as="geometry">
            <mxPoint x="970" y="425" as="sourcePoint" />
            <mxPoint x="1020" y="375" as="targetPoint" />
          </mxGeometry>
        </mxCell>
        <mxCell id="4AbDWoIpbRsuX7BxDNey-36" value="=" style="text;html=1;align=center;verticalAlign=middle;resizable=0;points=[];autosize=1;strokeColor=none;fillColor=none;" vertex="1" parent="1">
          <mxGeometry x="990" y="350" width="30" height="30" as="geometry" />
        </mxCell>
        <mxCell id="4AbDWoIpbRsuX7BxDNey-37" value="" style="endArrow=classic;html=1;rounded=0;exitX=1;exitY=0.5;exitDx=0;exitDy=0;entryX=0;entryY=0.5;entryDx=0;entryDy=0;" edge="1" parent="1" source="4AbDWoIpbRsuX7BxDNey-29" target="4AbDWoIpbRsuX7BxDNey-31">
          <mxGeometry width="50" height="50" relative="1" as="geometry">
            <mxPoint x="1060" y="354" as="sourcePoint" />
            <mxPoint x="1124" y="335" as="targetPoint" />
          </mxGeometry>
        </mxCell>
        <mxCell id="4AbDWoIpbRsuX7BxDNey-38" value="" style="endArrow=classic;html=1;rounded=0;exitX=1;exitY=1;exitDx=0;exitDy=0;entryX=0;entryY=0.5;entryDx=0;entryDy=0;" edge="1" parent="1" source="4AbDWoIpbRsuX7BxDNey-29">
          <mxGeometry width="50" height="50" relative="1" as="geometry">
            <mxPoint x="1060" y="423.76" as="sourcePoint" />
            <mxPoint x="1130" y="423.76" as="targetPoint" />
          </mxGeometry>
        </mxCell>
        <mxCell id="4AbDWoIpbRsuX7BxDNey-41" value="" style="endArrow=classic;html=1;rounded=0;entryX=0;entryY=0.5;entryDx=0;entryDy=0;entryPerimeter=0;" edge="1" parent="1" target="4AbDWoIpbRsuX7BxDNey-28">
          <mxGeometry width="50" height="50" relative="1" as="geometry">
            <mxPoint x="920" y="380" as="sourcePoint" />
            <mxPoint x="1020" y="375" as="targetPoint" />
          </mxGeometry>
        </mxCell>
        <mxCell id="4AbDWoIpbRsuX7BxDNey-42" value="=" style="text;html=1;align=center;verticalAlign=middle;resizable=0;points=[];autosize=1;strokeColor=none;fillColor=none;" vertex="1" parent="1">
          <mxGeometry x="1080" y="330" width="30" height="30" as="geometry" />
        </mxCell>
        <mxCell id="4AbDWoIpbRsuX7BxDNey-45" value="" style="ellipse;whiteSpace=wrap;html=1;aspect=fixed;" vertex="1" parent="1">
          <mxGeometry x="1135" y="340" width="20" height="20" as="geometry" />
        </mxCell>
        <mxCell id="4AbDWoIpbRsuX7BxDNey-46" value="Return&lt;div&gt;(logical_EQ)&lt;/div&gt;" style="text;html=1;align=center;verticalAlign=middle;resizable=0;points=[];autosize=1;strokeColor=none;fillColor=none;" vertex="1" parent="1">
          <mxGeometry x="1150" y="330" width="90" height="40" as="geometry" />
        </mxCell>
        <mxCell id="4AbDWoIpbRsuX7BxDNey-47" value="else" style="text;html=1;align=center;verticalAlign=middle;resizable=0;points=[];autosize=1;strokeColor=none;fillColor=none;" vertex="1" parent="1">
          <mxGeometry x="1080" y="384" width="50" height="30" as="geometry" />
        </mxCell>
        <mxCell id="4AbDWoIpbRsuX7BxDNey-48" value="Return&lt;div&gt;(Assign_op)&lt;/div&gt;" style="text;html=1;align=center;verticalAlign=middle;resizable=0;points=[];autosize=1;strokeColor=none;fillColor=none;" vertex="1" parent="1">
          <mxGeometry x="1155" y="400" width="90" height="40" as="geometry" />
        </mxCell>
        <mxCell id="4AbDWoIpbRsuX7BxDNey-50" value="" style="ellipse;whiteSpace=wrap;html=1;aspect=fixed;" vertex="1" parent="1">
          <mxGeometry x="113.75" y="672" width="30" height="30" as="geometry" />
        </mxCell>
        <mxCell id="4AbDWoIpbRsuX7BxDNey-52" value="" style="ellipse;whiteSpace=wrap;html=1;aspect=fixed;" vertex="1" parent="1">
          <mxGeometry x="188.75" y="672" width="30" height="30" as="geometry" />
        </mxCell>
        <mxCell id="4AbDWoIpbRsuX7BxDNey-53" value="" style="ellipse;whiteSpace=wrap;html=1;aspect=fixed;" vertex="1" parent="1">
          <mxGeometry x="188.75" y="760" width="30" height="30" as="geometry" />
        </mxCell>
        <mxCell id="4AbDWoIpbRsuX7BxDNey-56" value="" style="endArrow=classic;html=1;rounded=0;exitX=1;exitY=0.5;exitDx=0;exitDy=0;entryX=0;entryY=0.5;entryDx=0;entryDy=0;" edge="1" parent="1" target="4AbDWoIpbRsuX7BxDNey-50">
          <mxGeometry width="50" height="50" relative="1" as="geometry">
            <mxPoint x="78.75000000001683" y="687" as="sourcePoint" />
            <mxPoint x="108.75" y="682" as="targetPoint" />
          </mxGeometry>
        </mxCell>
        <mxCell id="4AbDWoIpbRsuX7BxDNey-57" value="/" style="text;html=1;align=center;verticalAlign=middle;resizable=0;points=[];autosize=1;strokeColor=none;fillColor=none;" vertex="1" parent="1">
          <mxGeometry x="78.75" y="657" width="30" height="30" as="geometry" />
        </mxCell>
        <mxCell id="4AbDWoIpbRsuX7BxDNey-58" value="" style="endArrow=classic;html=1;rounded=0;exitX=1;exitY=0.5;exitDx=0;exitDy=0;entryX=0;entryY=0.5;entryDx=0;entryDy=0;" edge="1" parent="1" source="4AbDWoIpbRsuX7BxDNey-50" target="4AbDWoIpbRsuX7BxDNey-52">
          <mxGeometry width="50" height="50" relative="1" as="geometry">
            <mxPoint x="148.75" y="691" as="sourcePoint" />
            <mxPoint x="212.75" y="672" as="targetPoint" />
          </mxGeometry>
        </mxCell>
        <mxCell id="4AbDWoIpbRsuX7BxDNey-59" value="" style="endArrow=classic;html=1;rounded=0;exitX=0.5;exitY=1;exitDx=0;exitDy=0;entryX=0.5;entryY=0;entryDx=0;entryDy=0;" edge="1" parent="1" source="4AbDWoIpbRsuX7BxDNey-50" target="4AbDWoIpbRsuX7BxDNey-53">
          <mxGeometry width="50" height="50" relative="1" as="geometry">
            <mxPoint x="128.75" y="801.76" as="sourcePoint" />
            <mxPoint x="168.75" y="747" as="targetPoint" />
          </mxGeometry>
        </mxCell>
        <mxCell id="4AbDWoIpbRsuX7BxDNey-62" value="" style="endArrow=classic;html=1;rounded=0;entryX=0;entryY=0.5;entryDx=0;entryDy=0;entryPerimeter=0;" edge="1" parent="1">
          <mxGeometry width="50" height="50" relative="1" as="geometry">
            <mxPoint x="8.75" y="687" as="sourcePoint" />
            <mxPoint x="48.75" y="687" as="targetPoint" />
          </mxGeometry>
        </mxCell>
        <mxCell id="4AbDWoIpbRsuX7BxDNey-63" value="/" style="text;html=1;align=center;verticalAlign=middle;resizable=0;points=[];autosize=1;strokeColor=none;fillColor=none;" vertex="1" parent="1">
          <mxGeometry x="148.75" y="657" width="30" height="30" as="geometry" />
        </mxCell>
        <mxCell id="4AbDWoIpbRsuX7BxDNey-66" value="*" style="text;html=1;align=center;verticalAlign=middle;resizable=0;points=[];autosize=1;strokeColor=none;fillColor=none;" vertex="1" parent="1">
          <mxGeometry x="158.75" y="710" width="30" height="30" as="geometry" />
        </mxCell>
        <mxCell id="4AbDWoIpbRsuX7BxDNey-67" value="" style="curved=1;endArrow=classic;html=1;rounded=0;entryX=1;entryY=1;entryDx=0;entryDy=0;exitX=1;exitY=0;exitDx=0;exitDy=0;" edge="1" parent="1" source="4AbDWoIpbRsuX7BxDNey-52" target="4AbDWoIpbRsuX7BxDNey-52">
          <mxGeometry width="50" height="50" relative="1" as="geometry">
            <mxPoint x="198.75" y="677" as="sourcePoint" />
            <mxPoint x="228.75" y="647" as="targetPoint" />
            <Array as="points">
              <mxPoint x="211.25" y="660" />
              <mxPoint x="241.25" y="670" />
              <mxPoint x="251.25" y="700" />
            </Array>
          </mxGeometry>
        </mxCell>
        <mxCell id="4AbDWoIpbRsuX7BxDNey-68" value="else" style="text;html=1;align=center;verticalAlign=middle;resizable=0;points=[];autosize=1;strokeColor=none;fillColor=none;" vertex="1" parent="1">
          <mxGeometry x="218.75" y="650" width="50" height="30" as="geometry" />
        </mxCell>
        <mxCell id="4AbDWoIpbRsuX7BxDNey-70" value="" style="endArrow=classic;html=1;rounded=0;exitX=0;exitY=0;exitDx=0;exitDy=0;entryX=0.5;entryY=0;entryDx=0;entryDy=0;" edge="1" parent="1" source="4AbDWoIpbRsuX7BxDNey-52" target="4AbDWoIpbRsuX7BxDNey-69">
          <mxGeometry width="50" height="50" relative="1" as="geometry">
            <mxPoint x="203.45999999999998" y="702" as="sourcePoint" />
            <mxPoint x="203.45999999999998" y="747" as="targetPoint" />
            <Array as="points">
              <mxPoint x="141.25" y="640" />
            </Array>
          </mxGeometry>
        </mxCell>
        <mxCell id="4AbDWoIpbRsuX7BxDNey-72" value="Enter" style="text;html=1;align=center;verticalAlign=middle;resizable=0;points=[];autosize=1;strokeColor=none;fillColor=none;" vertex="1" parent="1">
          <mxGeometry x="113.75" y="620" width="50" height="30" as="geometry" />
        </mxCell>
        <mxCell id="4AbDWoIpbRsuX7BxDNey-74" value="*" style="text;html=1;align=center;verticalAlign=middle;resizable=0;points=[];autosize=1;strokeColor=none;fillColor=none;" vertex="1" parent="1">
          <mxGeometry x="148.75" y="760" width="30" height="30" as="geometry" />
        </mxCell>
        <mxCell id="4AbDWoIpbRsuX7BxDNey-76" value="" style="endArrow=classic;html=1;rounded=0;exitX=0.5;exitY=0;exitDx=0;exitDy=0;entryX=0.5;entryY=1;entryDx=0;entryDy=0;" edge="1" parent="1" source="4AbDWoIpbRsuX7BxDNey-78" target="4AbDWoIpbRsuX7BxDNey-69">
          <mxGeometry width="50" height="50" relative="1" as="geometry">
            <mxPoint x="138.75" y="767" as="sourcePoint" />
            <mxPoint x="191.25" y="762" as="targetPoint" />
          </mxGeometry>
        </mxCell>
        <mxCell id="4AbDWoIpbRsuX7BxDNey-77" value="/" style="text;html=1;align=center;verticalAlign=middle;resizable=0;points=[];autosize=1;strokeColor=none;fillColor=none;" vertex="1" parent="1">
          <mxGeometry x="98.75" y="722" width="30" height="30" as="geometry" />
        </mxCell>
        <mxCell id="4AbDWoIpbRsuX7BxDNey-78" value="" style="ellipse;whiteSpace=wrap;html=1;aspect=fixed;" vertex="1" parent="1">
          <mxGeometry x="113.75" y="760" width="30" height="30" as="geometry" />
        </mxCell>
        <mxCell id="4AbDWoIpbRsuX7BxDNey-79" value="" style="endArrow=classic;html=1;rounded=0;entryX=1;entryY=0.5;entryDx=0;entryDy=0;exitX=0;exitY=0.5;exitDx=0;exitDy=0;" edge="1" parent="1" source="4AbDWoIpbRsuX7BxDNey-53" target="4AbDWoIpbRsuX7BxDNey-78">
          <mxGeometry width="50" height="50" relative="1" as="geometry">
            <mxPoint x="135.25" y="797" as="sourcePoint" />
            <mxPoint x="200.25" y="825" as="targetPoint" />
          </mxGeometry>
        </mxCell>
        <mxCell id="4AbDWoIpbRsuX7BxDNey-80" value="else" style="text;html=1;align=center;verticalAlign=middle;resizable=0;points=[];autosize=1;strokeColor=none;fillColor=none;" vertex="1" parent="1">
          <mxGeometry x="230" y="752" width="50" height="30" as="geometry" />
        </mxCell>
        <mxCell id="4AbDWoIpbRsuX7BxDNey-81" value="" style="endArrow=classic;html=1;rounded=0;exitX=1;exitY=1;exitDx=0;exitDy=0;entryX=0;entryY=1;entryDx=0;entryDy=0;" edge="1" parent="1" source="4AbDWoIpbRsuX7BxDNey-78" target="4AbDWoIpbRsuX7BxDNey-53">
          <mxGeometry width="50" height="50" relative="1" as="geometry">
            <mxPoint x="94.25" y="826" as="sourcePoint" />
            <mxPoint x="190" y="787" as="targetPoint" />
          </mxGeometry>
        </mxCell>
        <mxCell id="4AbDWoIpbRsuX7BxDNey-82" value="*" style="text;html=1;align=center;verticalAlign=middle;resizable=0;points=[];autosize=1;strokeColor=none;fillColor=none;" vertex="1" parent="1">
          <mxGeometry x="68.75" y="760" width="30" height="30" as="geometry" />
        </mxCell>
        <mxCell id="4AbDWoIpbRsuX7BxDNey-83" value="" style="curved=1;endArrow=classic;html=1;rounded=0;entryX=1;entryY=1;entryDx=0;entryDy=0;exitX=1;exitY=0;exitDx=0;exitDy=0;" edge="1" parent="1">
          <mxGeometry width="50" height="50" relative="1" as="geometry">
            <mxPoint x="214.25" y="766" as="sourcePoint" />
            <mxPoint x="214.25" y="788" as="targetPoint" />
            <Array as="points">
              <mxPoint x="211.25" y="750" />
              <mxPoint x="241.25" y="760" />
              <mxPoint x="251.25" y="790" />
            </Array>
          </mxGeometry>
        </mxCell>
        <mxCell id="4AbDWoIpbRsuX7BxDNey-88" value="" style="ellipse;whiteSpace=wrap;html=1;aspect=fixed;" vertex="1" parent="1">
          <mxGeometry x="53.75" y="677" width="20" height="20" as="geometry" />
        </mxCell>
        <mxCell id="4AbDWoIpbRsuX7BxDNey-89" value="" style="curved=1;endArrow=classic;html=1;rounded=0;entryX=0;entryY=1;entryDx=0;entryDy=0;exitX=0;exitY=0;exitDx=0;exitDy=0;" edge="1" parent="1" source="4AbDWoIpbRsuX7BxDNey-78" target="4AbDWoIpbRsuX7BxDNey-78">
          <mxGeometry width="50" height="50" relative="1" as="geometry">
            <mxPoint x="62.75" y="768" as="sourcePoint" />
            <mxPoint x="62.75" y="790" as="targetPoint" />
            <Array as="points">
              <mxPoint x="100" y="762" />
              <mxPoint x="90" y="770" />
              <mxPoint x="90" y="790" />
            </Array>
          </mxGeometry>
        </mxCell>
        <mxCell id="4AbDWoIpbRsuX7BxDNey-90" value="else" style="text;html=1;align=center;verticalAlign=middle;resizable=0;points=[];autosize=1;strokeColor=none;fillColor=none;" vertex="1" parent="1">
          <mxGeometry x="138.75" y="782" width="50" height="30" as="geometry" />
        </mxCell>
        <mxCell id="4AbDWoIpbRsuX7BxDNey-92" value="" style="ellipse;whiteSpace=wrap;html=1;aspect=fixed;" vertex="1" parent="1">
          <mxGeometry x="330" y="686" width="30" height="30" as="geometry" />
        </mxCell>
        <mxCell id="4AbDWoIpbRsuX7BxDNey-93" value="" style="ellipse;whiteSpace=wrap;html=1;aspect=fixed;" vertex="1" parent="1">
          <mxGeometry x="400" y="656" width="30" height="30" as="geometry" />
        </mxCell>
        <mxCell id="4AbDWoIpbRsuX7BxDNey-94" value="" style="ellipse;whiteSpace=wrap;html=1;aspect=fixed;" vertex="1" parent="1">
          <mxGeometry x="400" y="730" width="30" height="30" as="geometry" />
        </mxCell>
        <mxCell id="4AbDWoIpbRsuX7BxDNey-95" value="" style="ellipse;whiteSpace=wrap;html=1;aspect=fixed;" vertex="1" parent="1">
          <mxGeometry x="500" y="656" width="30" height="30" as="geometry" />
        </mxCell>
        <mxCell id="4AbDWoIpbRsuX7BxDNey-96" value="" style="ellipse;whiteSpace=wrap;html=1;aspect=fixed;" vertex="1" parent="1">
          <mxGeometry x="500" y="730" width="30" height="30" as="geometry" />
        </mxCell>
        <mxCell id="4AbDWoIpbRsuX7BxDNey-97" value="" style="ellipse;whiteSpace=wrap;html=1;aspect=fixed;" vertex="1" parent="1">
          <mxGeometry x="505" y="661" width="20" height="20" as="geometry" />
        </mxCell>
        <mxCell id="4AbDWoIpbRsuX7BxDNey-98" value="" style="ellipse;whiteSpace=wrap;html=1;aspect=fixed;" vertex="1" parent="1">
          <mxGeometry x="505" y="735" width="20" height="20" as="geometry" />
        </mxCell>
        <mxCell id="4AbDWoIpbRsuX7BxDNey-99" value="" style="endArrow=classic;html=1;rounded=0;exitX=1;exitY=0;exitDx=0;exitDy=0;entryX=0;entryY=0.5;entryDx=0;entryDy=0;" edge="1" parent="1" source="4AbDWoIpbRsuX7BxDNey-92" target="4AbDWoIpbRsuX7BxDNey-93">
          <mxGeometry width="50" height="50" relative="1" as="geometry">
            <mxPoint x="340" y="746" as="sourcePoint" />
            <mxPoint x="390" y="696" as="targetPoint" />
          </mxGeometry>
        </mxCell>
        <mxCell id="4AbDWoIpbRsuX7BxDNey-100" value="D" style="text;html=1;align=center;verticalAlign=middle;resizable=0;points=[];autosize=1;strokeColor=none;fillColor=none;" vertex="1" parent="1">
          <mxGeometry x="360" y="661" width="30" height="30" as="geometry" />
        </mxCell>
        <mxCell id="4AbDWoIpbRsuX7BxDNey-101" value="" style="endArrow=classic;html=1;rounded=0;exitX=1;exitY=0.5;exitDx=0;exitDy=0;entryX=0;entryY=0.5;entryDx=0;entryDy=0;" edge="1" parent="1" source="4AbDWoIpbRsuX7BxDNey-93" target="4AbDWoIpbRsuX7BxDNey-95">
          <mxGeometry width="50" height="50" relative="1" as="geometry">
            <mxPoint x="430" y="675" as="sourcePoint" />
            <mxPoint x="494" y="656" as="targetPoint" />
          </mxGeometry>
        </mxCell>
        <mxCell id="4AbDWoIpbRsuX7BxDNey-102" value="" style="endArrow=classic;html=1;rounded=0;exitX=1;exitY=0.5;exitDx=0;exitDy=0;entryX=0;entryY=0.5;entryDx=0;entryDy=0;" edge="1" parent="1">
          <mxGeometry width="50" height="50" relative="1" as="geometry">
            <mxPoint x="430" y="744.76" as="sourcePoint" />
            <mxPoint x="500" y="744.76" as="targetPoint" />
          </mxGeometry>
        </mxCell>
        <mxCell id="4AbDWoIpbRsuX7BxDNey-103" value="" style="endArrow=classic;html=1;rounded=0;exitX=0.5;exitY=1;exitDx=0;exitDy=0;entryX=0.5;entryY=0;entryDx=0;entryDy=0;" edge="1" parent="1" source="4AbDWoIpbRsuX7BxDNey-93" target="4AbDWoIpbRsuX7BxDNey-94">
          <mxGeometry width="50" height="50" relative="1" as="geometry">
            <mxPoint x="357" y="716" as="sourcePoint" />
            <mxPoint x="400" y="745" as="targetPoint" />
          </mxGeometry>
        </mxCell>
        <mxCell id="4AbDWoIpbRsuX7BxDNey-104" value="." style="text;html=1;align=center;verticalAlign=middle;resizable=0;points=[];autosize=1;strokeColor=none;fillColor=none;" vertex="1" parent="1">
          <mxGeometry x="410" y="690" width="30" height="30" as="geometry" />
        </mxCell>
        <mxCell id="4AbDWoIpbRsuX7BxDNey-105" value="else" style="text;html=1;align=center;verticalAlign=middle;resizable=0;points=[];autosize=1;strokeColor=none;fillColor=none;" vertex="1" parent="1">
          <mxGeometry x="440" y="651" width="50" height="30" as="geometry" />
        </mxCell>
        <mxCell id="4AbDWoIpbRsuX7BxDNey-106" value="else" style="text;html=1;align=center;verticalAlign=middle;resizable=0;points=[];autosize=1;strokeColor=none;fillColor=none;" vertex="1" parent="1">
          <mxGeometry x="440" y="716" width="50" height="30" as="geometry" />
        </mxCell>
        <mxCell id="4AbDWoIpbRsuX7BxDNey-110" value="" style="curved=1;endArrow=classic;html=1;rounded=0;entryX=0.759;entryY=0.041;entryDx=0;entryDy=0;exitX=0;exitY=0;exitDx=0;exitDy=0;entryPerimeter=0;" edge="1" parent="1" source="4AbDWoIpbRsuX7BxDNey-93" target="4AbDWoIpbRsuX7BxDNey-93">
          <mxGeometry width="50" height="50" relative="1" as="geometry">
            <mxPoint x="392.75" y="631" as="sourcePoint" />
            <mxPoint x="392.75" y="653" as="targetPoint" />
            <Array as="points">
              <mxPoint x="380" y="640" />
              <mxPoint x="403" y="630" />
              <mxPoint x="420" y="640" />
            </Array>
          </mxGeometry>
        </mxCell>
        <mxCell id="4AbDWoIpbRsuX7BxDNey-111" value="D" style="text;html=1;align=center;verticalAlign=middle;resizable=0;points=[];autosize=1;strokeColor=none;fillColor=none;" vertex="1" parent="1">
          <mxGeometry x="360" y="621" width="30" height="30" as="geometry" />
        </mxCell>
        <mxCell id="4AbDWoIpbRsuX7BxDNey-114" value="" style="curved=1;endArrow=classic;html=1;rounded=0;entryX=0;entryY=1;entryDx=0;entryDy=0;exitX=1;exitY=1;exitDx=0;exitDy=0;" edge="1" parent="1" source="4AbDWoIpbRsuX7BxDNey-94" target="4AbDWoIpbRsuX7BxDNey-94">
          <mxGeometry width="50" height="50" relative="1" as="geometry">
            <mxPoint x="413" y="776" as="sourcePoint" />
            <mxPoint x="413" y="798" as="targetPoint" />
            <Array as="points">
              <mxPoint x="430" y="770" />
              <mxPoint x="404" y="780" />
            </Array>
          </mxGeometry>
        </mxCell>
        <mxCell id="4AbDWoIpbRsuX7BxDNey-115" value="D" style="text;html=1;align=center;verticalAlign=middle;resizable=0;points=[];autosize=1;strokeColor=none;fillColor=none;" vertex="1" parent="1">
          <mxGeometry x="400" y="770" width="30" height="30" as="geometry" />
        </mxCell>
        <mxCell id="4AbDWoIpbRsuX7BxDNey-116" value="ungetc()&lt;div&gt;return (Int)&lt;/div&gt;" style="text;html=1;align=left;verticalAlign=middle;resizable=0;points=[];autosize=1;strokeColor=none;fillColor=none;" vertex="1" parent="1">
          <mxGeometry x="535" y="650" width="80" height="40" as="geometry" />
        </mxCell>
        <mxCell id="4AbDWoIpbRsuX7BxDNey-117" value="ungetc()&lt;div&gt;return (Float)&lt;/div&gt;" style="text;html=1;align=left;verticalAlign=middle;resizable=0;points=[];autosize=1;strokeColor=none;fillColor=none;" vertex="1" parent="1">
          <mxGeometry x="530" y="725" width="90" height="40" as="geometry" />
        </mxCell>
        <mxCell id="4AbDWoIpbRsuX7BxDNey-118" value="" style="endArrow=classic;html=1;rounded=0;entryX=0;entryY=0.5;entryDx=0;entryDy=0;entryPerimeter=0;" edge="1" parent="1">
          <mxGeometry width="50" height="50" relative="1" as="geometry">
            <mxPoint x="290" y="701.52" as="sourcePoint" />
            <mxPoint x="330" y="701.52" as="targetPoint" />
            <Array as="points">
              <mxPoint x="330" y="701.52" />
            </Array>
          </mxGeometry>
        </mxCell>
        <mxCell id="4AbDWoIpbRsuX7BxDNey-119" value="" style="ellipse;whiteSpace=wrap;html=1;aspect=fixed;" vertex="1" parent="1">
          <mxGeometry x="650" y="681" width="30" height="30" as="geometry" />
        </mxCell>
        <mxCell id="4AbDWoIpbRsuX7BxDNey-120" value="" style="ellipse;whiteSpace=wrap;html=1;aspect=fixed;" vertex="1" parent="1">
          <mxGeometry x="710" y="651" width="30" height="30" as="geometry" />
        </mxCell>
        <mxCell id="4AbDWoIpbRsuX7BxDNey-121" value="" style="ellipse;whiteSpace=wrap;html=1;aspect=fixed;" vertex="1" parent="1">
          <mxGeometry x="710" y="725" width="30" height="30" as="geometry" />
        </mxCell>
        <mxCell id="4AbDWoIpbRsuX7BxDNey-122" value="" style="ellipse;whiteSpace=wrap;html=1;aspect=fixed;" vertex="1" parent="1">
          <mxGeometry x="825" y="651" width="30" height="30" as="geometry" />
        </mxCell>
        <mxCell id="4AbDWoIpbRsuX7BxDNey-145" value="" style="edgeStyle=orthogonalEdgeStyle;rounded=0;orthogonalLoop=1;jettySize=auto;html=1;entryX=0;entryY=0.5;entryDx=0;entryDy=0;" edge="1" parent="1" source="4AbDWoIpbRsuX7BxDNey-123" target="4AbDWoIpbRsuX7BxDNey-143">
          <mxGeometry relative="1" as="geometry">
            <mxPoint x="820" y="740" as="targetPoint" />
            <Array as="points" />
          </mxGeometry>
        </mxCell>
        <mxCell id="4AbDWoIpbRsuX7BxDNey-123" value="" style="ellipse;whiteSpace=wrap;html=1;aspect=fixed;" vertex="1" parent="1">
          <mxGeometry x="770" y="725" width="30" height="30" as="geometry" />
        </mxCell>
        <mxCell id="4AbDWoIpbRsuX7BxDNey-124" value="" style="ellipse;whiteSpace=wrap;html=1;aspect=fixed;" vertex="1" parent="1">
          <mxGeometry x="830" y="656" width="20" height="20" as="geometry" />
        </mxCell>
        <mxCell id="4AbDWoIpbRsuX7BxDNey-126" value="" style="endArrow=classic;html=1;rounded=0;exitX=1;exitY=0;exitDx=0;exitDy=0;entryX=0;entryY=0.5;entryDx=0;entryDy=0;" edge="1" parent="1" source="4AbDWoIpbRsuX7BxDNey-119" target="4AbDWoIpbRsuX7BxDNey-120">
          <mxGeometry width="50" height="50" relative="1" as="geometry">
            <mxPoint x="660" y="741" as="sourcePoint" />
            <mxPoint x="710" y="691" as="targetPoint" />
          </mxGeometry>
        </mxCell>
        <mxCell id="4AbDWoIpbRsuX7BxDNey-127" value="&#39;" style="text;html=1;align=center;verticalAlign=middle;resizable=0;points=[];autosize=1;strokeColor=none;fillColor=none;" vertex="1" parent="1">
          <mxGeometry x="670" y="656" width="30" height="30" as="geometry" />
        </mxCell>
        <mxCell id="4AbDWoIpbRsuX7BxDNey-128" value="" style="endArrow=classic;html=1;rounded=0;exitX=1;exitY=0.5;exitDx=0;exitDy=0;entryX=0;entryY=0.5;entryDx=0;entryDy=0;" edge="1" parent="1" source="4AbDWoIpbRsuX7BxDNey-120" target="4AbDWoIpbRsuX7BxDNey-136">
          <mxGeometry width="50" height="50" relative="1" as="geometry">
            <mxPoint x="750" y="670" as="sourcePoint" />
            <mxPoint x="760" y="670" as="targetPoint" />
          </mxGeometry>
        </mxCell>
        <mxCell id="4AbDWoIpbRsuX7BxDNey-130" value="" style="endArrow=classic;html=1;rounded=0;exitX=1;exitY=0.5;exitDx=0;exitDy=0;" edge="1" parent="1" source="4AbDWoIpbRsuX7BxDNey-121" target="4AbDWoIpbRsuX7BxDNey-123">
          <mxGeometry width="50" height="50" relative="1" as="geometry">
            <mxPoint x="750" y="739.76" as="sourcePoint" />
            <mxPoint x="773.2399999999998" y="739.6199999999999" as="targetPoint" />
          </mxGeometry>
        </mxCell>
        <mxCell id="4AbDWoIpbRsuX7BxDNey-131" value="" style="endArrow=classic;html=1;rounded=0;entryX=0;entryY=0.5;entryDx=0;entryDy=0;exitX=1;exitY=1;exitDx=0;exitDy=0;" edge="1" parent="1" source="4AbDWoIpbRsuX7BxDNey-119" target="4AbDWoIpbRsuX7BxDNey-121">
          <mxGeometry width="50" height="50" relative="1" as="geometry">
            <mxPoint x="677" y="711" as="sourcePoint" />
            <mxPoint x="720" y="688" as="targetPoint" />
          </mxGeometry>
        </mxCell>
        <mxCell id="4AbDWoIpbRsuX7BxDNey-132" value="&quot;" style="text;html=1;align=center;verticalAlign=middle;resizable=0;points=[];autosize=1;strokeColor=none;fillColor=none;" vertex="1" parent="1">
          <mxGeometry x="690" y="700" width="30" height="30" as="geometry" />
        </mxCell>
        <mxCell id="4AbDWoIpbRsuX7BxDNey-133" value="" style="endArrow=classic;html=1;rounded=0;entryX=0;entryY=0.5;entryDx=0;entryDy=0;entryPerimeter=0;" edge="1" parent="1" target="4AbDWoIpbRsuX7BxDNey-119">
          <mxGeometry width="50" height="50" relative="1" as="geometry">
            <mxPoint x="610" y="696" as="sourcePoint" />
            <mxPoint x="710" y="691" as="targetPoint" />
          </mxGeometry>
        </mxCell>
        <mxCell id="4AbDWoIpbRsuX7BxDNey-134" value="else" style="text;html=1;align=center;verticalAlign=middle;resizable=0;points=[];autosize=1;strokeColor=none;fillColor=none;" vertex="1" parent="1">
          <mxGeometry x="730" y="642" width="50" height="30" as="geometry" />
        </mxCell>
        <mxCell id="4AbDWoIpbRsuX7BxDNey-139" value="" style="edgeStyle=orthogonalEdgeStyle;rounded=0;orthogonalLoop=1;jettySize=auto;html=1;entryX=0;entryY=0.5;entryDx=0;entryDy=0;" edge="1" parent="1" source="4AbDWoIpbRsuX7BxDNey-136" target="4AbDWoIpbRsuX7BxDNey-122">
          <mxGeometry relative="1" as="geometry">
            <mxPoint x="820" y="666" as="targetPoint" />
          </mxGeometry>
        </mxCell>
        <mxCell id="4AbDWoIpbRsuX7BxDNey-136" value="" style="ellipse;whiteSpace=wrap;html=1;aspect=fixed;" vertex="1" parent="1">
          <mxGeometry x="770" y="651" width="30" height="30" as="geometry" />
        </mxCell>
        <mxCell id="4AbDWoIpbRsuX7BxDNey-137" value="else" style="text;html=1;align=center;verticalAlign=middle;resizable=0;points=[];autosize=1;strokeColor=none;fillColor=none;" vertex="1" parent="1">
          <mxGeometry x="730" y="716" width="50" height="30" as="geometry" />
        </mxCell>
        <mxCell id="4AbDWoIpbRsuX7BxDNey-141" value="&#39;" style="text;html=1;align=center;verticalAlign=middle;resizable=0;points=[];autosize=1;strokeColor=none;fillColor=none;" vertex="1" parent="1">
          <mxGeometry x="795" y="642" width="30" height="30" as="geometry" />
        </mxCell>
        <mxCell id="4AbDWoIpbRsuX7BxDNey-143" value="" style="ellipse;whiteSpace=wrap;html=1;aspect=fixed;" vertex="1" parent="1">
          <mxGeometry x="825" y="725" width="30" height="30" as="geometry" />
        </mxCell>
        <mxCell id="4AbDWoIpbRsuX7BxDNey-144" value="" style="ellipse;whiteSpace=wrap;html=1;aspect=fixed;" vertex="1" parent="1">
          <mxGeometry x="830" y="730" width="20" height="20" as="geometry" />
        </mxCell>
        <mxCell id="4AbDWoIpbRsuX7BxDNey-147" value="&quot;" style="text;html=1;align=center;verticalAlign=middle;resizable=0;points=[];autosize=1;strokeColor=none;fillColor=none;" vertex="1" parent="1">
          <mxGeometry x="795" y="716" width="30" height="30" as="geometry" />
        </mxCell>
        <mxCell id="4AbDWoIpbRsuX7BxDNey-150" value="&lt;div style=&quot;font-size: 9px;&quot;&gt;return (Char)&lt;/div&gt;" style="text;html=1;align=left;verticalAlign=middle;resizable=0;points=[];autosize=1;strokeColor=none;fillColor=none;fontSize=9;" vertex="1" parent="1">
          <mxGeometry x="855" y="660" width="80" height="20" as="geometry" />
        </mxCell>
        <mxCell id="4AbDWoIpbRsuX7BxDNey-151" value="&lt;div style=&quot;font-size: 8px;&quot;&gt;return (String)&lt;/div&gt;" style="text;html=1;align=left;verticalAlign=middle;resizable=0;points=[];autosize=1;strokeColor=none;fillColor=none;fontSize=9;" vertex="1" parent="1">
          <mxGeometry x="855" y="730" width="70" height="20" as="geometry" />
        </mxCell>
        <mxCell id="4AbDWoIpbRsuX7BxDNey-152" value="" style="ellipse;whiteSpace=wrap;html=1;aspect=fixed;" vertex="1" parent="1">
          <mxGeometry x="955" y="681" width="30" height="30" as="geometry" />
        </mxCell>
        <mxCell id="4AbDWoIpbRsuX7BxDNey-154" value="" style="ellipse;whiteSpace=wrap;html=1;aspect=fixed;" vertex="1" parent="1">
          <mxGeometry x="1125" y="651" width="30" height="30" as="geometry" />
        </mxCell>
        <mxCell id="4AbDWoIpbRsuX7BxDNey-157" value="" style="endArrow=classic;html=1;rounded=0;exitX=1;exitY=0.5;exitDx=0;exitDy=0;entryX=0;entryY=0.5;entryDx=0;entryDy=0;" edge="1" parent="1" source="4AbDWoIpbRsuX7BxDNey-152" target="4AbDWoIpbRsuX7BxDNey-154">
          <mxGeometry width="50" height="50" relative="1" as="geometry">
            <mxPoint x="965" y="741" as="sourcePoint" />
            <mxPoint x="1025" y="696" as="targetPoint" />
          </mxGeometry>
        </mxCell>
        <mxCell id="4AbDWoIpbRsuX7BxDNey-158" value="&lt;span style=&quot;line-height: 115%; font-family: &amp;quot;Times New Roman&amp;quot;, serif;&quot;&gt;( ; | : | , | ‘ | “ | { | } | [ | ] | ( | ) | # | ~ | ` | @ | ?&lt;/span&gt;" style="text;html=1;align=center;verticalAlign=middle;resizable=0;points=[];autosize=1;strokeColor=none;fillColor=none;" vertex="1" parent="1">
          <mxGeometry x="935" y="625" width="240" height="30" as="geometry" />
        </mxCell>
        <mxCell id="4AbDWoIpbRsuX7BxDNey-161" value="" style="endArrow=classic;html=1;rounded=0;entryX=0;entryY=0.5;entryDx=0;entryDy=0;entryPerimeter=0;" edge="1" parent="1" target="4AbDWoIpbRsuX7BxDNey-152">
          <mxGeometry width="50" height="50" relative="1" as="geometry">
            <mxPoint x="915" y="696" as="sourcePoint" />
            <mxPoint x="1015" y="691" as="targetPoint" />
          </mxGeometry>
        </mxCell>
        <mxCell id="4AbDWoIpbRsuX7BxDNey-163" value="" style="ellipse;whiteSpace=wrap;html=1;aspect=fixed;" vertex="1" parent="1">
          <mxGeometry x="1130" y="656" width="20" height="20" as="geometry" />
        </mxCell>
        <mxCell id="4AbDWoIpbRsuX7BxDNey-164" value="&lt;font style=&quot;font-size: 8px;&quot;&gt;Return&amp;nbsp;&lt;/font&gt;&lt;span style=&quot;background-color: initial;&quot;&gt;( comma)&amp;nbsp;)&lt;/span&gt;" style="text;html=1;align=center;verticalAlign=middle;resizable=0;points=[];autosize=1;strokeColor=none;fillColor=none;fontSize=8;" vertex="1" parent="1">
          <mxGeometry x="1155" y="735" width="90" height="20" as="geometry" />
        </mxCell>
        <mxCell id="4AbDWoIpbRsuX7BxDNey-167" value="" style="ellipse;whiteSpace=wrap;html=1;aspect=fixed;" vertex="1" parent="1">
          <mxGeometry x="1125" y="690" width="30" height="30" as="geometry" />
        </mxCell>
        <mxCell id="4AbDWoIpbRsuX7BxDNey-168" value="" style="ellipse;whiteSpace=wrap;html=1;aspect=fixed;" vertex="1" parent="1">
          <mxGeometry x="1130" y="695" width="20" height="20" as="geometry" />
        </mxCell>
        <mxCell id="4AbDWoIpbRsuX7BxDNey-169" value="&lt;font style=&quot;font-size: 8px;&quot;&gt;Return&amp;nbsp;&lt;/font&gt;&lt;span style=&quot;background-color: initial;&quot;&gt;( colon)&lt;/span&gt;" style="text;html=1;align=center;verticalAlign=middle;resizable=0;points=[];autosize=1;strokeColor=none;fillColor=none;fontSize=8;" vertex="1" parent="1">
          <mxGeometry x="1155" y="695" width="80" height="20" as="geometry" />
        </mxCell>
        <mxCell id="4AbDWoIpbRsuX7BxDNey-170" value="" style="ellipse;whiteSpace=wrap;html=1;aspect=fixed;" vertex="1" parent="1">
          <mxGeometry x="1125" y="730" width="30" height="30" as="geometry" />
        </mxCell>
        <mxCell id="4AbDWoIpbRsuX7BxDNey-171" value="" style="ellipse;whiteSpace=wrap;html=1;aspect=fixed;" vertex="1" parent="1">
          <mxGeometry x="1130" y="735" width="20" height="20" as="geometry" />
        </mxCell>
        <mxCell id="4AbDWoIpbRsuX7BxDNey-172" value="&lt;font style=&quot;font-size: 8px;&quot;&gt;Return&amp;nbsp;&lt;/font&gt;&lt;span style=&quot;background-color: initial;&quot;&gt;( semi_colon&amp;nbsp;)&lt;/span&gt;" style="text;html=1;align=center;verticalAlign=middle;resizable=0;points=[];autosize=1;strokeColor=none;fillColor=none;fontSize=8;" vertex="1" parent="1">
          <mxGeometry x="1160" y="657" width="100" height="20" as="geometry" />
        </mxCell>
        <mxCell id="4AbDWoIpbRsuX7BxDNey-173" value="" style="ellipse;whiteSpace=wrap;html=1;aspect=fixed;" vertex="1" parent="1">
          <mxGeometry x="1125" y="770" width="30" height="30" as="geometry" />
        </mxCell>
        <mxCell id="4AbDWoIpbRsuX7BxDNey-174" value="" style="ellipse;whiteSpace=wrap;html=1;aspect=fixed;" vertex="1" parent="1">
          <mxGeometry x="1130" y="775" width="20" height="20" as="geometry" />
        </mxCell>
        <mxCell id="4AbDWoIpbRsuX7BxDNey-175" value="&lt;font style=&quot;font-size: 8px;&quot;&gt;Return&amp;nbsp;&lt;/font&gt;&lt;span style=&quot;background-color: initial;&quot;&gt;( open_curly)&lt;/span&gt;" style="text;html=1;align=center;verticalAlign=middle;resizable=0;points=[];autosize=1;strokeColor=none;fillColor=none;fontSize=8;" vertex="1" parent="1">
          <mxGeometry x="1155" y="850" width="100" height="20" as="geometry" />
        </mxCell>
        <mxCell id="4AbDWoIpbRsuX7BxDNey-176" value="" style="ellipse;whiteSpace=wrap;html=1;aspect=fixed;" vertex="1" parent="1">
          <mxGeometry x="1125" y="812" width="30" height="30" as="geometry" />
        </mxCell>
        <mxCell id="4AbDWoIpbRsuX7BxDNey-177" value="" style="ellipse;whiteSpace=wrap;html=1;aspect=fixed;" vertex="1" parent="1">
          <mxGeometry x="1130" y="817" width="20" height="20" as="geometry" />
        </mxCell>
        <mxCell id="4AbDWoIpbRsuX7BxDNey-178" value="&lt;font style=&quot;font-size: 8px;&quot;&gt;Return&amp;nbsp;&lt;/font&gt;&lt;span style=&quot;background-color: initial;&quot;&gt;( close&lt;/span&gt;_curly&lt;span style=&quot;background-color: initial;&quot;&gt;&amp;nbsp;)&lt;/span&gt;" style="text;html=1;align=center;verticalAlign=middle;resizable=0;points=[];autosize=1;strokeColor=none;fillColor=none;fontSize=8;" vertex="1" parent="1">
          <mxGeometry x="1155" y="894" width="100" height="20" as="geometry" />
        </mxCell>
        <mxCell id="4AbDWoIpbRsuX7BxDNey-179" value="" style="ellipse;whiteSpace=wrap;html=1;aspect=fixed;" vertex="1" parent="1">
          <mxGeometry x="1125" y="850" width="30" height="30" as="geometry" />
        </mxCell>
        <mxCell id="4AbDWoIpbRsuX7BxDNey-180" value="" style="ellipse;whiteSpace=wrap;html=1;aspect=fixed;" vertex="1" parent="1">
          <mxGeometry x="1130" y="855" width="20" height="20" as="geometry" />
        </mxCell>
        <mxCell id="4AbDWoIpbRsuX7BxDNey-181" value="&lt;font style=&quot;font-size: 8px;&quot;&gt;Return&amp;nbsp;&lt;/font&gt;&lt;span style=&quot;background-color: initial;&quot;&gt;( single_quot )&lt;/span&gt;" style="text;html=1;align=center;verticalAlign=middle;resizable=0;points=[];autosize=1;strokeColor=none;fillColor=none;fontSize=8;" vertex="1" parent="1">
          <mxGeometry x="1155" y="775" width="100" height="20" as="geometry" />
        </mxCell>
        <mxCell id="4AbDWoIpbRsuX7BxDNey-182" value="" style="ellipse;whiteSpace=wrap;html=1;aspect=fixed;" vertex="1" parent="1">
          <mxGeometry x="1125" y="889" width="30" height="30" as="geometry" />
        </mxCell>
        <mxCell id="4AbDWoIpbRsuX7BxDNey-183" value="" style="ellipse;whiteSpace=wrap;html=1;aspect=fixed;" vertex="1" parent="1">
          <mxGeometry x="1130" y="894" width="20" height="20" as="geometry" />
        </mxCell>
        <mxCell id="4AbDWoIpbRsuX7BxDNey-184" value="&lt;font style=&quot;font-size: 8px;&quot;&gt;Return&amp;nbsp;&lt;/font&gt;&lt;span style=&quot;background-color: initial;&quot;&gt;( double&lt;/span&gt;_quot&lt;span style=&quot;background-color: initial;&quot;&gt;&amp;nbsp;)&lt;/span&gt;" style="text;html=1;align=center;verticalAlign=middle;resizable=0;points=[];autosize=1;strokeColor=none;fillColor=none;fontSize=8;" vertex="1" parent="1">
          <mxGeometry x="1155" y="817" width="100" height="20" as="geometry" />
        </mxCell>
        <mxCell id="4AbDWoIpbRsuX7BxDNey-185" value="" style="ellipse;whiteSpace=wrap;html=1;aspect=fixed;" vertex="1" parent="1">
          <mxGeometry x="1125" y="929" width="30" height="30" as="geometry" />
        </mxCell>
        <mxCell id="4AbDWoIpbRsuX7BxDNey-186" value="" style="ellipse;whiteSpace=wrap;html=1;aspect=fixed;" vertex="1" parent="1">
          <mxGeometry x="1130" y="934" width="20" height="20" as="geometry" />
        </mxCell>
        <mxCell id="4AbDWoIpbRsuX7BxDNey-187" value="&lt;font style=&quot;font-size: 8px;&quot;&gt;Return&amp;nbsp;&lt;/font&gt;&lt;span style=&quot;background-color: initial;&quot;&gt;( open_bracket )&lt;/span&gt;" style="text;html=1;align=center;verticalAlign=middle;resizable=0;points=[];autosize=1;strokeColor=none;fillColor=none;fontSize=8;" vertex="1" parent="1">
          <mxGeometry x="1145" y="933" width="110" height="20" as="geometry" />
        </mxCell>
        <mxCell id="4AbDWoIpbRsuX7BxDNey-188" value="" style="ellipse;whiteSpace=wrap;html=1;aspect=fixed;" vertex="1" parent="1">
          <mxGeometry x="1125" y="969" width="30" height="30" as="geometry" />
        </mxCell>
        <mxCell id="4AbDWoIpbRsuX7BxDNey-189" value="" style="ellipse;whiteSpace=wrap;html=1;aspect=fixed;" vertex="1" parent="1">
          <mxGeometry x="1130" y="974" width="20" height="20" as="geometry" />
        </mxCell>
        <mxCell id="4AbDWoIpbRsuX7BxDNey-190" value="&lt;font style=&quot;font-size: 8px;&quot;&gt;Return&amp;nbsp;&lt;/font&gt;&lt;span style=&quot;background-color: initial;&quot;&gt;( close_bracket )&lt;/span&gt;" style="text;html=1;align=center;verticalAlign=middle;resizable=0;points=[];autosize=1;strokeColor=none;fillColor=none;fontSize=8;" vertex="1" parent="1">
          <mxGeometry x="1145" y="973" width="110" height="20" as="geometry" />
        </mxCell>
        <mxCell id="4AbDWoIpbRsuX7BxDNey-191" value="" style="ellipse;whiteSpace=wrap;html=1;aspect=fixed;" vertex="1" parent="1">
          <mxGeometry x="1125" y="1011" width="30" height="30" as="geometry" />
        </mxCell>
        <mxCell id="4AbDWoIpbRsuX7BxDNey-192" value="" style="ellipse;whiteSpace=wrap;html=1;aspect=fixed;" vertex="1" parent="1">
          <mxGeometry x="1130" y="1016" width="20" height="20" as="geometry" />
        </mxCell>
        <mxCell id="4AbDWoIpbRsuX7BxDNey-193" value="&lt;font style=&quot;font-size: 8px;&quot;&gt;Return&amp;nbsp;&lt;/font&gt;&lt;span style=&quot;background-color: initial;&quot;&gt;( open_paran )&lt;/span&gt;" style="text;html=1;align=center;verticalAlign=middle;resizable=0;points=[];autosize=1;strokeColor=none;fillColor=none;fontSize=8;" vertex="1" parent="1">
          <mxGeometry x="1150" y="1015" width="100" height="20" as="geometry" />
        </mxCell>
        <mxCell id="4AbDWoIpbRsuX7BxDNey-194" value="" style="ellipse;whiteSpace=wrap;html=1;aspect=fixed;" vertex="1" parent="1">
          <mxGeometry x="1125" y="1050" width="30" height="30" as="geometry" />
        </mxCell>
        <mxCell id="4AbDWoIpbRsuX7BxDNey-195" value="" style="ellipse;whiteSpace=wrap;html=1;aspect=fixed;" vertex="1" parent="1">
          <mxGeometry x="1130" y="1055" width="20" height="20" as="geometry" />
        </mxCell>
        <mxCell id="4AbDWoIpbRsuX7BxDNey-196" value="&lt;font style=&quot;font-size: 8px;&quot;&gt;Return&amp;nbsp;&lt;/font&gt;&lt;span style=&quot;background-color: initial;&quot;&gt;( close_paran )&lt;/span&gt;" style="text;html=1;align=center;verticalAlign=middle;resizable=0;points=[];autosize=1;strokeColor=none;fillColor=none;fontSize=8;" vertex="1" parent="1">
          <mxGeometry x="1150" y="1054" width="100" height="20" as="geometry" />
        </mxCell>
        <mxCell id="4AbDWoIpbRsuX7BxDNey-197" value="" style="ellipse;whiteSpace=wrap;html=1;aspect=fixed;" vertex="1" parent="1">
          <mxGeometry x="1125" y="1089" width="30" height="30" as="geometry" />
        </mxCell>
        <mxCell id="4AbDWoIpbRsuX7BxDNey-198" value="" style="ellipse;whiteSpace=wrap;html=1;aspect=fixed;" vertex="1" parent="1">
          <mxGeometry x="1130" y="1094" width="20" height="20" as="geometry" />
        </mxCell>
        <mxCell id="4AbDWoIpbRsuX7BxDNey-199" value="&lt;font style=&quot;font-size: 8px;&quot;&gt;Return&amp;nbsp;&lt;/font&gt;&lt;span style=&quot;background-color: initial;&quot;&gt;( tag )&lt;/span&gt;" style="text;html=1;align=center;verticalAlign=middle;resizable=0;points=[];autosize=1;strokeColor=none;fillColor=none;fontSize=8;" vertex="1" parent="1">
          <mxGeometry x="1165" y="1093" width="70" height="20" as="geometry" />
        </mxCell>
        <mxCell id="4AbDWoIpbRsuX7BxDNey-200" value="" style="ellipse;whiteSpace=wrap;html=1;aspect=fixed;" vertex="1" parent="1">
          <mxGeometry x="1125" y="1129" width="30" height="30" as="geometry" />
        </mxCell>
        <mxCell id="4AbDWoIpbRsuX7BxDNey-201" value="" style="ellipse;whiteSpace=wrap;html=1;aspect=fixed;" vertex="1" parent="1">
          <mxGeometry x="1130" y="1134" width="20" height="20" as="geometry" />
        </mxCell>
        <mxCell id="4AbDWoIpbRsuX7BxDNey-202" value="&lt;font style=&quot;font-size: 8px;&quot;&gt;Return&amp;nbsp;&lt;/font&gt;&lt;span style=&quot;background-color: initial;&quot;&gt;( title )&lt;/span&gt;" style="text;html=1;align=center;verticalAlign=middle;resizable=0;points=[];autosize=1;strokeColor=none;fillColor=none;fontSize=8;" vertex="1" parent="1">
          <mxGeometry x="1165" y="1133" width="70" height="20" as="geometry" />
        </mxCell>
        <mxCell id="4AbDWoIpbRsuX7BxDNey-203" value="" style="ellipse;whiteSpace=wrap;html=1;aspect=fixed;" vertex="1" parent="1">
          <mxGeometry x="1125" y="1169" width="30" height="30" as="geometry" />
        </mxCell>
        <mxCell id="4AbDWoIpbRsuX7BxDNey-204" value="" style="ellipse;whiteSpace=wrap;html=1;aspect=fixed;" vertex="1" parent="1">
          <mxGeometry x="1130" y="1174" width="20" height="20" as="geometry" />
        </mxCell>
        <mxCell id="4AbDWoIpbRsuX7BxDNey-205" value="&lt;font style=&quot;font-size: 8px;&quot;&gt;Return&amp;nbsp;&lt;/font&gt;&lt;span style=&quot;background-color: initial;&quot;&gt;( backtrack )&lt;/span&gt;" style="text;html=1;align=center;verticalAlign=middle;resizable=0;points=[];autosize=1;strokeColor=none;fillColor=none;fontSize=8;" vertex="1" parent="1">
          <mxGeometry x="1155" y="1173" width="90" height="20" as="geometry" />
        </mxCell>
        <mxCell id="4AbDWoIpbRsuX7BxDNey-206" value="" style="ellipse;whiteSpace=wrap;html=1;aspect=fixed;" vertex="1" parent="1">
          <mxGeometry x="1125" y="1211" width="30" height="30" as="geometry" />
        </mxCell>
        <mxCell id="4AbDWoIpbRsuX7BxDNey-207" value="" style="ellipse;whiteSpace=wrap;html=1;aspect=fixed;" vertex="1" parent="1">
          <mxGeometry x="1130" y="1216" width="20" height="20" as="geometry" />
        </mxCell>
        <mxCell id="4AbDWoIpbRsuX7BxDNey-208" value="&lt;font style=&quot;font-size: 8px;&quot;&gt;Return&amp;nbsp;&lt;/font&gt;&lt;span style=&quot;background-color: initial;&quot;&gt;( at_sign )&lt;/span&gt;" style="text;html=1;align=center;verticalAlign=middle;resizable=0;points=[];autosize=1;strokeColor=none;fillColor=none;fontSize=8;" vertex="1" parent="1">
          <mxGeometry x="1155" y="1215" width="90" height="20" as="geometry" />
        </mxCell>
        <mxCell id="4AbDWoIpbRsuX7BxDNey-214" value="" style="endArrow=classic;html=1;rounded=0;exitX=1;exitY=0.5;exitDx=0;exitDy=0;entryX=0;entryY=0.5;entryDx=0;entryDy=0;" edge="1" parent="1" source="4AbDWoIpbRsuX7BxDNey-152" target="4AbDWoIpbRsuX7BxDNey-167">
          <mxGeometry width="50" height="50" relative="1" as="geometry">
            <mxPoint x="995" y="706" as="sourcePoint" />
            <mxPoint x="1135" y="676" as="targetPoint" />
          </mxGeometry>
        </mxCell>
        <mxCell id="4AbDWoIpbRsuX7BxDNey-215" value="" style="endArrow=classic;html=1;rounded=0;exitX=1;exitY=0.5;exitDx=0;exitDy=0;entryX=0;entryY=0.5;entryDx=0;entryDy=0;" edge="1" parent="1" source="4AbDWoIpbRsuX7BxDNey-152" target="4AbDWoIpbRsuX7BxDNey-170">
          <mxGeometry width="50" height="50" relative="1" as="geometry">
            <mxPoint x="1005" y="716" as="sourcePoint" />
            <mxPoint x="1145" y="686" as="targetPoint" />
          </mxGeometry>
        </mxCell>
        <mxCell id="4AbDWoIpbRsuX7BxDNey-216" value="" style="endArrow=classic;html=1;rounded=0;entryX=0;entryY=0.5;entryDx=0;entryDy=0;" edge="1" parent="1" target="4AbDWoIpbRsuX7BxDNey-173">
          <mxGeometry width="50" height="50" relative="1" as="geometry">
            <mxPoint x="990" y="696" as="sourcePoint" />
            <mxPoint x="1155" y="696" as="targetPoint" />
          </mxGeometry>
        </mxCell>
        <mxCell id="4AbDWoIpbRsuX7BxDNey-217" value="" style="endArrow=classic;html=1;rounded=0;exitX=1;exitY=0.5;exitDx=0;exitDy=0;entryX=0;entryY=0.5;entryDx=0;entryDy=0;" edge="1" parent="1" source="4AbDWoIpbRsuX7BxDNey-152" target="4AbDWoIpbRsuX7BxDNey-176">
          <mxGeometry width="50" height="50" relative="1" as="geometry">
            <mxPoint x="1025" y="736" as="sourcePoint" />
            <mxPoint x="1165" y="706" as="targetPoint" />
          </mxGeometry>
        </mxCell>
        <mxCell id="4AbDWoIpbRsuX7BxDNey-218" value="" style="endArrow=classic;html=1;rounded=0;exitX=1;exitY=0.5;exitDx=0;exitDy=0;entryX=0;entryY=0.5;entryDx=0;entryDy=0;" edge="1" parent="1" source="4AbDWoIpbRsuX7BxDNey-152" target="4AbDWoIpbRsuX7BxDNey-179">
          <mxGeometry width="50" height="50" relative="1" as="geometry">
            <mxPoint x="1035" y="746" as="sourcePoint" />
            <mxPoint x="1175" y="716" as="targetPoint" />
          </mxGeometry>
        </mxCell>
        <mxCell id="4AbDWoIpbRsuX7BxDNey-219" value="" style="endArrow=classic;html=1;rounded=0;exitX=1;exitY=0.5;exitDx=0;exitDy=0;entryX=0;entryY=0.5;entryDx=0;entryDy=0;" edge="1" parent="1" source="4AbDWoIpbRsuX7BxDNey-152" target="4AbDWoIpbRsuX7BxDNey-182">
          <mxGeometry width="50" height="50" relative="1" as="geometry">
            <mxPoint x="1045" y="756" as="sourcePoint" />
            <mxPoint x="1185" y="726" as="targetPoint" />
          </mxGeometry>
        </mxCell>
        <mxCell id="4AbDWoIpbRsuX7BxDNey-220" value="" style="endArrow=classic;html=1;rounded=0;exitX=1;exitY=0.5;exitDx=0;exitDy=0;entryX=0;entryY=0.5;entryDx=0;entryDy=0;" edge="1" parent="1" source="4AbDWoIpbRsuX7BxDNey-152" target="4AbDWoIpbRsuX7BxDNey-185">
          <mxGeometry width="50" height="50" relative="1" as="geometry">
            <mxPoint x="1055" y="766" as="sourcePoint" />
            <mxPoint x="1195" y="736" as="targetPoint" />
          </mxGeometry>
        </mxCell>
        <mxCell id="4AbDWoIpbRsuX7BxDNey-221" value="" style="endArrow=classic;html=1;rounded=0;exitX=1;exitY=0.5;exitDx=0;exitDy=0;entryX=0;entryY=0.5;entryDx=0;entryDy=0;" edge="1" parent="1" source="4AbDWoIpbRsuX7BxDNey-152" target="4AbDWoIpbRsuX7BxDNey-188">
          <mxGeometry width="50" height="50" relative="1" as="geometry">
            <mxPoint x="1065" y="776" as="sourcePoint" />
            <mxPoint x="1205" y="746" as="targetPoint" />
          </mxGeometry>
        </mxCell>
        <mxCell id="4AbDWoIpbRsuX7BxDNey-222" value="" style="endArrow=classic;html=1;rounded=0;exitX=1;exitY=0.5;exitDx=0;exitDy=0;entryX=0;entryY=0.5;entryDx=0;entryDy=0;" edge="1" parent="1" source="4AbDWoIpbRsuX7BxDNey-152" target="4AbDWoIpbRsuX7BxDNey-191">
          <mxGeometry width="50" height="50" relative="1" as="geometry">
            <mxPoint x="1075" y="786" as="sourcePoint" />
            <mxPoint x="1215" y="756" as="targetPoint" />
          </mxGeometry>
        </mxCell>
        <mxCell id="4AbDWoIpbRsuX7BxDNey-223" value="" style="endArrow=classic;html=1;rounded=0;exitX=1;exitY=0.5;exitDx=0;exitDy=0;entryX=0;entryY=0.5;entryDx=0;entryDy=0;" edge="1" parent="1" source="4AbDWoIpbRsuX7BxDNey-152" target="4AbDWoIpbRsuX7BxDNey-194">
          <mxGeometry width="50" height="50" relative="1" as="geometry">
            <mxPoint x="1085" y="796" as="sourcePoint" />
            <mxPoint x="1225" y="766" as="targetPoint" />
          </mxGeometry>
        </mxCell>
        <mxCell id="4AbDWoIpbRsuX7BxDNey-224" value="" style="endArrow=classic;html=1;rounded=0;exitX=1;exitY=0.5;exitDx=0;exitDy=0;entryX=0;entryY=0.5;entryDx=0;entryDy=0;" edge="1" parent="1" source="4AbDWoIpbRsuX7BxDNey-152" target="4AbDWoIpbRsuX7BxDNey-197">
          <mxGeometry width="50" height="50" relative="1" as="geometry">
            <mxPoint x="1095" y="806" as="sourcePoint" />
            <mxPoint x="1235" y="776" as="targetPoint" />
          </mxGeometry>
        </mxCell>
        <mxCell id="4AbDWoIpbRsuX7BxDNey-225" value="" style="endArrow=classic;html=1;rounded=0;exitX=1;exitY=0.5;exitDx=0;exitDy=0;entryX=0;entryY=0.5;entryDx=0;entryDy=0;" edge="1" parent="1" source="4AbDWoIpbRsuX7BxDNey-152" target="4AbDWoIpbRsuX7BxDNey-200">
          <mxGeometry width="50" height="50" relative="1" as="geometry">
            <mxPoint x="1105" y="816" as="sourcePoint" />
            <mxPoint x="1245" y="786" as="targetPoint" />
          </mxGeometry>
        </mxCell>
        <mxCell id="4AbDWoIpbRsuX7BxDNey-226" value="" style="endArrow=classic;html=1;rounded=0;exitX=1;exitY=0.5;exitDx=0;exitDy=0;entryX=0;entryY=0.5;entryDx=0;entryDy=0;" edge="1" parent="1" source="4AbDWoIpbRsuX7BxDNey-152" target="4AbDWoIpbRsuX7BxDNey-203">
          <mxGeometry width="50" height="50" relative="1" as="geometry">
            <mxPoint x="1115" y="826" as="sourcePoint" />
            <mxPoint x="1255" y="796" as="targetPoint" />
          </mxGeometry>
        </mxCell>
        <mxCell id="4AbDWoIpbRsuX7BxDNey-227" value="" style="endArrow=classic;html=1;rounded=0;exitX=1.024;exitY=0.657;exitDx=0;exitDy=0;entryX=0;entryY=0.5;entryDx=0;entryDy=0;exitPerimeter=0;" edge="1" parent="1" source="4AbDWoIpbRsuX7BxDNey-152" target="4AbDWoIpbRsuX7BxDNey-206">
          <mxGeometry width="50" height="50" relative="1" as="geometry">
            <mxPoint x="1125" y="836" as="sourcePoint" />
            <mxPoint x="1265" y="806" as="targetPoint" />
          </mxGeometry>
        </mxCell>
        <mxCell id="4AbDWoIpbRsuX7BxDNey-228" value="" style="ellipse;whiteSpace=wrap;html=1;aspect=fixed;" vertex="1" parent="1">
          <mxGeometry x="1125" y="1250" width="30" height="30" as="geometry" />
        </mxCell>
        <mxCell id="4AbDWoIpbRsuX7BxDNey-229" value="" style="ellipse;whiteSpace=wrap;html=1;aspect=fixed;" vertex="1" parent="1">
          <mxGeometry x="1130" y="1255" width="20" height="20" as="geometry" />
        </mxCell>
        <mxCell id="4AbDWoIpbRsuX7BxDNey-230" value="&lt;font style=&quot;font-size: 8px;&quot;&gt;Return&amp;nbsp;&lt;/font&gt;&lt;span style=&quot;background-color: initial;&quot;&gt;( question_mark )&lt;/span&gt;" style="text;html=1;align=center;verticalAlign=middle;resizable=0;points=[];autosize=1;strokeColor=none;fillColor=none;fontSize=8;" vertex="1" parent="1">
          <mxGeometry x="1145" y="1254" width="110" height="20" as="geometry" />
        </mxCell>
        <mxCell id="4AbDWoIpbRsuX7BxDNey-231" value="" style="endArrow=classic;html=1;rounded=0;exitX=1;exitY=0.5;exitDx=0;exitDy=0;entryX=0;entryY=0.5;entryDx=0;entryDy=0;" edge="1" parent="1" source="4AbDWoIpbRsuX7BxDNey-152" target="4AbDWoIpbRsuX7BxDNey-228">
          <mxGeometry width="50" height="50" relative="1" as="geometry">
            <mxPoint x="996" y="711" as="sourcePoint" />
            <mxPoint x="1135" y="1236" as="targetPoint" />
          </mxGeometry>
        </mxCell>
        <mxCell id="61uXr8QTfpye8QH7Ok3g-26" style="rounded=0;orthogonalLoop=1;jettySize=auto;html=1;entryX=0;entryY=0.5;entryDx=0;entryDy=0;" edge="1" parent="1" target="61uXr8QTfpye8QH7Ok3g-2">
          <mxGeometry relative="1" as="geometry">
            <mxPoint x="60" y="140" as="sourcePoint" />
          </mxGeometry>
        </mxCell>
        <mxCell id="61uXr8QTfpye8QH7Ok3g-41" value="" style="endArrow=none;html=1;rounded=0;" edge="1" parent="1">
          <mxGeometry width="50" height="50" relative="1" as="geometry">
            <mxPoint x="460" y="240" as="sourcePoint" />
            <mxPoint x="460" y="-580" as="targetPoint" />
          </mxGeometry>
        </mxCell>
        <mxCell id="61uXr8QTfpye8QH7Ok3g-51" style="rounded=0;orthogonalLoop=1;jettySize=auto;html=1;entryX=0;entryY=1;entryDx=0;entryDy=0;" edge="1" parent="1" source="61uXr8QTfpye8QH7Ok3g-42" target="61uXr8QTfpye8QH7Ok3g-49">
          <mxGeometry relative="1" as="geometry" />
        </mxCell>
        <mxCell id="61uXr8QTfpye8QH7Ok3g-52" style="rounded=0;orthogonalLoop=1;jettySize=auto;html=1;entryX=0;entryY=1;entryDx=0;entryDy=0;" edge="1" parent="1" source="61uXr8QTfpye8QH7Ok3g-42" target="61uXr8QTfpye8QH7Ok3g-113">
          <mxGeometry relative="1" as="geometry">
            <mxPoint x="740.9999999999727" y="-110.49999999999977" as="targetPoint" />
          </mxGeometry>
        </mxCell>
        <mxCell id="61uXr8QTfpye8QH7Ok3g-53" style="rounded=0;orthogonalLoop=1;jettySize=auto;html=1;entryX=0;entryY=0.5;entryDx=0;entryDy=0;" edge="1" parent="1" source="61uXr8QTfpye8QH7Ok3g-42" target="61uXr8QTfpye8QH7Ok3g-45">
          <mxGeometry relative="1" as="geometry" />
        </mxCell>
        <mxCell id="61uXr8QTfpye8QH7Ok3g-54" style="rounded=0;orthogonalLoop=1;jettySize=auto;html=1;entryX=0;entryY=0.5;entryDx=0;entryDy=0;" edge="1" parent="1" source="61uXr8QTfpye8QH7Ok3g-42" target="61uXr8QTfpye8QH7Ok3g-139">
          <mxGeometry relative="1" as="geometry">
            <mxPoint x="740.9999999999727" y="100.50000000000023" as="targetPoint" />
          </mxGeometry>
        </mxCell>
        <mxCell id="61uXr8QTfpye8QH7Ok3g-55" style="rounded=0;orthogonalLoop=1;jettySize=auto;html=1;entryX=0;entryY=0;entryDx=0;entryDy=0;" edge="1" parent="1" source="61uXr8QTfpye8QH7Ok3g-42" target="61uXr8QTfpye8QH7Ok3g-162">
          <mxGeometry relative="1" as="geometry">
            <mxPoint x="751.2114177668677" y="160.71141776686773" as="targetPoint" />
          </mxGeometry>
        </mxCell>
        <mxCell id="61uXr8QTfpye8QH7Ok3g-42" value="" style="ellipse;whiteSpace=wrap;html=1;aspect=fixed;" vertex="1" parent="1">
          <mxGeometry x="525" y="-85.5" width="40" height="40" as="geometry" />
        </mxCell>
        <mxCell id="61uXr8QTfpye8QH7Ok3g-45" value="" style="ellipse;whiteSpace=wrap;html=1;aspect=fixed;" vertex="1" parent="1">
          <mxGeometry x="741" y="-85" width="39" height="39" as="geometry" />
        </mxCell>
        <mxCell id="61uXr8QTfpye8QH7Ok3g-96" style="rounded=0;orthogonalLoop=1;jettySize=auto;html=1;exitX=1;exitY=0;exitDx=0;exitDy=0;entryX=0;entryY=0.5;entryDx=0;entryDy=0;" edge="1" parent="1" source="61uXr8QTfpye8QH7Ok3g-49" target="61uXr8QTfpye8QH7Ok3g-94">
          <mxGeometry relative="1" as="geometry" />
        </mxCell>
        <mxCell id="61uXr8QTfpye8QH7Ok3g-97" style="edgeStyle=orthogonalEdgeStyle;rounded=0;orthogonalLoop=1;jettySize=auto;html=1;exitX=1;exitY=0.5;exitDx=0;exitDy=0;entryX=0;entryY=0.5;entryDx=0;entryDy=0;" edge="1" parent="1" source="61uXr8QTfpye8QH7Ok3g-49" target="61uXr8QTfpye8QH7Ok3g-95">
          <mxGeometry relative="1" as="geometry" />
        </mxCell>
        <mxCell id="61uXr8QTfpye8QH7Ok3g-49" value="" style="ellipse;whiteSpace=wrap;html=1;aspect=fixed;" vertex="1" parent="1">
          <mxGeometry x="740" y="-333.5" width="39" height="39" as="geometry" />
        </mxCell>
        <mxCell id="61uXr8QTfpye8QH7Ok3g-50" style="rounded=0;orthogonalLoop=1;jettySize=auto;html=1;entryX=0;entryY=0.5;entryDx=0;entryDy=0;" edge="1" parent="1" target="61uXr8QTfpye8QH7Ok3g-42">
          <mxGeometry relative="1" as="geometry">
            <mxPoint x="490" y="-65" as="sourcePoint" />
            <mxPoint x="555.5" y="-7.240000000000009" as="targetPoint" />
          </mxGeometry>
        </mxCell>
        <mxCell id="61uXr8QTfpye8QH7Ok3g-56" value="+" style="text;html=1;align=center;verticalAlign=middle;whiteSpace=wrap;rounded=0;" vertex="1" parent="1">
          <mxGeometry x="565" y="-140" width="20" height="20" as="geometry" />
        </mxCell>
        <mxCell id="61uXr8QTfpye8QH7Ok3g-94" value="" style="ellipse;whiteSpace=wrap;html=1;aspect=fixed;" vertex="1" parent="1">
          <mxGeometry x="840" y="-403.5" width="39" height="39" as="geometry" />
        </mxCell>
        <mxCell id="61uXr8QTfpye8QH7Ok3g-95" value="" style="ellipse;whiteSpace=wrap;html=1;aspect=fixed;" vertex="1" parent="1">
          <mxGeometry x="840" y="-333.5" width="39" height="39" as="geometry" />
        </mxCell>
        <mxCell id="61uXr8QTfpye8QH7Ok3g-98" value="=" style="text;html=1;align=center;verticalAlign=middle;whiteSpace=wrap;rounded=0;" vertex="1" parent="1">
          <mxGeometry x="800" y="-333.5" width="20" height="20" as="geometry" />
        </mxCell>
        <mxCell id="61uXr8QTfpye8QH7Ok3g-99" value="return(add_assign)" style="text;html=1;align=center;verticalAlign=middle;whiteSpace=wrap;rounded=0;" vertex="1" parent="1">
          <mxGeometry x="890" y="-329" width="110" height="30" as="geometry" />
        </mxCell>
        <mxCell id="61uXr8QTfpye8QH7Ok3g-100" value="&lt;div&gt;ungetc()&lt;/div&gt;return(arithmatic_addition_op)" style="text;html=1;align=center;verticalAlign=middle;whiteSpace=wrap;rounded=0;" vertex="1" parent="1">
          <mxGeometry x="890" y="-403.5" width="170" height="30" as="geometry" />
        </mxCell>
        <mxCell id="61uXr8QTfpye8QH7Ok3g-101" value="else" style="text;html=1;align=center;verticalAlign=middle;whiteSpace=wrap;rounded=0;" vertex="1" parent="1">
          <mxGeometry x="750" y="-383.5" width="60" height="30" as="geometry" />
        </mxCell>
        <mxCell id="61uXr8QTfpye8QH7Ok3g-111" style="rounded=0;orthogonalLoop=1;jettySize=auto;html=1;exitX=1;exitY=0;exitDx=0;exitDy=0;entryX=0;entryY=0.5;entryDx=0;entryDy=0;" edge="1" parent="1" source="61uXr8QTfpye8QH7Ok3g-113" target="61uXr8QTfpye8QH7Ok3g-114">
          <mxGeometry relative="1" as="geometry" />
        </mxCell>
        <mxCell id="61uXr8QTfpye8QH7Ok3g-112" style="edgeStyle=orthogonalEdgeStyle;rounded=0;orthogonalLoop=1;jettySize=auto;html=1;exitX=1;exitY=0.5;exitDx=0;exitDy=0;entryX=0;entryY=0.5;entryDx=0;entryDy=0;" edge="1" parent="1" source="61uXr8QTfpye8QH7Ok3g-113" target="61uXr8QTfpye8QH7Ok3g-115">
          <mxGeometry relative="1" as="geometry" />
        </mxCell>
        <mxCell id="61uXr8QTfpye8QH7Ok3g-113" value="" style="ellipse;whiteSpace=wrap;html=1;aspect=fixed;" vertex="1" parent="1">
          <mxGeometry x="740" y="-202.5" width="39" height="39" as="geometry" />
        </mxCell>
        <mxCell id="61uXr8QTfpye8QH7Ok3g-114" value="" style="ellipse;whiteSpace=wrap;html=1;aspect=fixed;" vertex="1" parent="1">
          <mxGeometry x="840" y="-272.5" width="39" height="39" as="geometry" />
        </mxCell>
        <mxCell id="61uXr8QTfpye8QH7Ok3g-115" value="" style="ellipse;whiteSpace=wrap;html=1;aspect=fixed;" vertex="1" parent="1">
          <mxGeometry x="840" y="-202.5" width="39" height="39" as="geometry" />
        </mxCell>
        <mxCell id="61uXr8QTfpye8QH7Ok3g-116" value="=" style="text;html=1;align=center;verticalAlign=middle;whiteSpace=wrap;rounded=0;" vertex="1" parent="1">
          <mxGeometry x="800" y="-202.5" width="20" height="20" as="geometry" />
        </mxCell>
        <mxCell id="61uXr8QTfpye8QH7Ok3g-117" value="return(subtract_assign)" style="text;html=1;align=center;verticalAlign=middle;whiteSpace=wrap;rounded=0;" vertex="1" parent="1">
          <mxGeometry x="890" y="-198" width="130" height="30" as="geometry" />
        </mxCell>
        <mxCell id="61uXr8QTfpye8QH7Ok3g-118" value="&lt;div&gt;&lt;div&gt;ungetc()&lt;/div&gt;&lt;/div&gt;return(arithmatic_subtraction_op)" style="text;html=1;align=center;verticalAlign=middle;whiteSpace=wrap;rounded=0;" vertex="1" parent="1">
          <mxGeometry x="890" y="-268" width="210" height="30" as="geometry" />
        </mxCell>
        <mxCell id="61uXr8QTfpye8QH7Ok3g-119" value="else" style="text;html=1;align=center;verticalAlign=middle;whiteSpace=wrap;rounded=0;" vertex="1" parent="1">
          <mxGeometry x="750" y="-252.5" width="60" height="30" as="geometry" />
        </mxCell>
        <mxCell id="61uXr8QTfpye8QH7Ok3g-120" style="rounded=0;orthogonalLoop=1;jettySize=auto;html=1;exitX=1;exitY=0;exitDx=0;exitDy=0;entryX=0;entryY=0.5;entryDx=0;entryDy=0;" edge="1" parent="1" source="61uXr8QTfpye8QH7Ok3g-45" target="61uXr8QTfpye8QH7Ok3g-123">
          <mxGeometry relative="1" as="geometry">
            <mxPoint x="873.2885822331305" y="-79.28858223313091" as="sourcePoint" />
          </mxGeometry>
        </mxCell>
        <mxCell id="61uXr8QTfpye8QH7Ok3g-121" style="rounded=0;orthogonalLoop=1;jettySize=auto;html=1;exitX=1;exitY=1;exitDx=0;exitDy=0;entryX=0;entryY=0.5;entryDx=0;entryDy=0;" edge="1" parent="1" source="61uXr8QTfpye8QH7Ok3g-45" target="61uXr8QTfpye8QH7Ok3g-124">
          <mxGeometry relative="1" as="geometry">
            <mxPoint x="873.2885822331305" y="-51.71141776686886" as="sourcePoint" />
          </mxGeometry>
        </mxCell>
        <mxCell id="61uXr8QTfpye8QH7Ok3g-123" value="" style="ellipse;whiteSpace=wrap;html=1;aspect=fixed;" vertex="1" parent="1">
          <mxGeometry x="840" y="-133.5" width="39" height="39" as="geometry" />
        </mxCell>
        <mxCell id="61uXr8QTfpye8QH7Ok3g-124" value="" style="ellipse;whiteSpace=wrap;html=1;aspect=fixed;" vertex="1" parent="1">
          <mxGeometry x="840" y="-52.5" width="39" height="39" as="geometry" />
        </mxCell>
        <mxCell id="61uXr8QTfpye8QH7Ok3g-125" value="=" style="text;html=1;align=center;verticalAlign=middle;whiteSpace=wrap;rounded=0;" vertex="1" parent="1">
          <mxGeometry x="800" y="-63.5" width="20" height="20" as="geometry" />
        </mxCell>
        <mxCell id="61uXr8QTfpye8QH7Ok3g-126" value="return(multiply_assign)" style="text;html=1;align=center;verticalAlign=middle;whiteSpace=wrap;rounded=0;" vertex="1" parent="1">
          <mxGeometry x="890" y="-43.5" width="130" height="30" as="geometry" />
        </mxCell>
        <mxCell id="61uXr8QTfpye8QH7Ok3g-127" value="&lt;div&gt;&lt;div&gt;ungetc()&lt;/div&gt;&lt;/div&gt;return(arithmatic_multiplication_op)" style="text;html=1;align=center;verticalAlign=middle;whiteSpace=wrap;rounded=0;" vertex="1" parent="1">
          <mxGeometry x="890" y="-130" width="220" height="35.5" as="geometry" />
        </mxCell>
        <mxCell id="61uXr8QTfpye8QH7Ok3g-128" value="else" style="text;html=1;align=center;verticalAlign=middle;whiteSpace=wrap;rounded=0;" vertex="1" parent="1">
          <mxGeometry x="770" y="-129" width="60" height="30" as="geometry" />
        </mxCell>
        <mxCell id="61uXr8QTfpye8QH7Ok3g-131" value="-" style="text;html=1;align=center;verticalAlign=middle;whiteSpace=wrap;rounded=0;" vertex="1" parent="1">
          <mxGeometry x="630" y="-140" width="20" height="20" as="geometry" />
        </mxCell>
        <mxCell id="61uXr8QTfpye8QH7Ok3g-132" value="*" style="text;html=1;align=center;verticalAlign=middle;whiteSpace=wrap;rounded=0;" vertex="1" parent="1">
          <mxGeometry x="660" y="-85.5" width="20" height="20" as="geometry" />
        </mxCell>
        <mxCell id="61uXr8QTfpye8QH7Ok3g-133" value="" style="ellipse;whiteSpace=wrap;html=1;aspect=fixed;" vertex="1" parent="1">
          <mxGeometry x="844.5" y="-399" width="30" height="30" as="geometry" />
        </mxCell>
        <mxCell id="61uXr8QTfpye8QH7Ok3g-134" value="" style="ellipse;whiteSpace=wrap;html=1;aspect=fixed;" vertex="1" parent="1">
          <mxGeometry x="844.5" y="-329" width="30" height="30" as="geometry" />
        </mxCell>
        <mxCell id="61uXr8QTfpye8QH7Ok3g-135" value="" style="ellipse;whiteSpace=wrap;html=1;aspect=fixed;" vertex="1" parent="1">
          <mxGeometry x="844.5" y="-268" width="30" height="30" as="geometry" />
        </mxCell>
        <mxCell id="61uXr8QTfpye8QH7Ok3g-136" value="" style="ellipse;whiteSpace=wrap;html=1;aspect=fixed;" vertex="1" parent="1">
          <mxGeometry x="844.5" y="-198" width="30" height="30" as="geometry" />
        </mxCell>
        <mxCell id="61uXr8QTfpye8QH7Ok3g-137" value="" style="ellipse;whiteSpace=wrap;html=1;aspect=fixed;" vertex="1" parent="1">
          <mxGeometry x="844.5" y="-129" width="30" height="30" as="geometry" />
        </mxCell>
        <mxCell id="61uXr8QTfpye8QH7Ok3g-138" value="" style="ellipse;whiteSpace=wrap;html=1;aspect=fixed;" vertex="1" parent="1">
          <mxGeometry x="844.5" y="-48" width="30" height="30" as="geometry" />
        </mxCell>
        <mxCell id="61uXr8QTfpye8QH7Ok3g-139" value="" style="ellipse;whiteSpace=wrap;html=1;aspect=fixed;" vertex="1" parent="1">
          <mxGeometry x="745.5" y="45" width="39" height="39" as="geometry" />
        </mxCell>
        <mxCell id="61uXr8QTfpye8QH7Ok3g-140" style="rounded=0;orthogonalLoop=1;jettySize=auto;html=1;exitX=1;exitY=0;exitDx=0;exitDy=0;entryX=0;entryY=0.5;entryDx=0;entryDy=0;" edge="1" parent="1" source="61uXr8QTfpye8QH7Ok3g-139" target="61uXr8QTfpye8QH7Ok3g-142">
          <mxGeometry relative="1" as="geometry">
            <mxPoint x="877.7885822331305" y="50.71141776686909" as="sourcePoint" />
          </mxGeometry>
        </mxCell>
        <mxCell id="61uXr8QTfpye8QH7Ok3g-141" style="rounded=0;orthogonalLoop=1;jettySize=auto;html=1;exitX=1;exitY=1;exitDx=0;exitDy=0;entryX=0;entryY=0.5;entryDx=0;entryDy=0;" edge="1" parent="1" source="61uXr8QTfpye8QH7Ok3g-139">
          <mxGeometry relative="1" as="geometry">
            <mxPoint x="877.7885822331305" y="78.28858223313114" as="sourcePoint" />
            <mxPoint x="844.5000000000077" y="97.00000000000023" as="targetPoint" />
          </mxGeometry>
        </mxCell>
        <mxCell id="61uXr8QTfpye8QH7Ok3g-142" value="" style="ellipse;whiteSpace=wrap;html=1;aspect=fixed;" vertex="1" parent="1">
          <mxGeometry x="844.5" y="6" width="39" height="39" as="geometry" />
        </mxCell>
        <mxCell id="61uXr8QTfpye8QH7Ok3g-143" value="" style="ellipse;whiteSpace=wrap;html=1;aspect=fixed;" vertex="1" parent="1">
          <mxGeometry x="844.5" y="77.5" width="39" height="39" as="geometry" />
        </mxCell>
        <mxCell id="61uXr8QTfpye8QH7Ok3g-144" value="=" style="text;html=1;align=center;verticalAlign=middle;whiteSpace=wrap;rounded=0;" vertex="1" parent="1">
          <mxGeometry x="804.5" y="66.5" width="20" height="20" as="geometry" />
        </mxCell>
        <mxCell id="61uXr8QTfpye8QH7Ok3g-145" value="return(divide_assign)" style="text;html=1;align=center;verticalAlign=middle;whiteSpace=wrap;rounded=0;" vertex="1" parent="1">
          <mxGeometry x="895" y="84" width="130" height="30" as="geometry" />
        </mxCell>
        <mxCell id="61uXr8QTfpye8QH7Ok3g-146" value="&lt;div&gt;&lt;div&gt;ungetc()&lt;/div&gt;&lt;/div&gt;return(arithmatic_division_op)" style="text;html=1;align=center;verticalAlign=middle;whiteSpace=wrap;rounded=0;" vertex="1" parent="1">
          <mxGeometry x="890" y="7.75" width="200" height="35.5" as="geometry" />
        </mxCell>
        <mxCell id="61uXr8QTfpye8QH7Ok3g-147" value="else" style="text;html=1;align=center;verticalAlign=middle;whiteSpace=wrap;rounded=0;" vertex="1" parent="1">
          <mxGeometry x="774.5" y="1" width="60" height="30" as="geometry" />
        </mxCell>
        <mxCell id="61uXr8QTfpye8QH7Ok3g-148" value="" style="ellipse;whiteSpace=wrap;html=1;aspect=fixed;" vertex="1" parent="1">
          <mxGeometry x="849" y="10.5" width="30" height="30" as="geometry" />
        </mxCell>
        <mxCell id="61uXr8QTfpye8QH7Ok3g-149" value="" style="ellipse;whiteSpace=wrap;html=1;aspect=fixed;" vertex="1" parent="1">
          <mxGeometry x="849" y="82" width="30" height="30" as="geometry" />
        </mxCell>
        <mxCell id="61uXr8QTfpye8QH7Ok3g-150" value="/" style="text;html=1;align=center;verticalAlign=middle;whiteSpace=wrap;rounded=0;" vertex="1" parent="1">
          <mxGeometry x="680" width="20" height="20" as="geometry" />
        </mxCell>
        <mxCell id="61uXr8QTfpye8QH7Ok3g-162" value="" style="ellipse;whiteSpace=wrap;html=1;aspect=fixed;" vertex="1" parent="1">
          <mxGeometry x="745.5" y="164" width="39" height="39" as="geometry" />
        </mxCell>
        <mxCell id="61uXr8QTfpye8QH7Ok3g-163" style="rounded=0;orthogonalLoop=1;jettySize=auto;html=1;exitX=1;exitY=0;exitDx=0;exitDy=0;entryX=0;entryY=0.5;entryDx=0;entryDy=0;" edge="1" parent="1" source="61uXr8QTfpye8QH7Ok3g-162" target="61uXr8QTfpye8QH7Ok3g-165">
          <mxGeometry relative="1" as="geometry">
            <mxPoint x="877.7885822331305" y="169.7114177668691" as="sourcePoint" />
          </mxGeometry>
        </mxCell>
        <mxCell id="61uXr8QTfpye8QH7Ok3g-164" style="rounded=0;orthogonalLoop=1;jettySize=auto;html=1;exitX=1;exitY=1;exitDx=0;exitDy=0;entryX=0;entryY=0.5;entryDx=0;entryDy=0;" edge="1" parent="1" source="61uXr8QTfpye8QH7Ok3g-162">
          <mxGeometry relative="1" as="geometry">
            <mxPoint x="877.7885822331305" y="197.28858223313114" as="sourcePoint" />
            <mxPoint x="844.5000000000077" y="216.00000000000023" as="targetPoint" />
          </mxGeometry>
        </mxCell>
        <mxCell id="61uXr8QTfpye8QH7Ok3g-165" value="" style="ellipse;whiteSpace=wrap;html=1;aspect=fixed;" vertex="1" parent="1">
          <mxGeometry x="844.5" y="125" width="39" height="39" as="geometry" />
        </mxCell>
        <mxCell id="61uXr8QTfpye8QH7Ok3g-166" value="" style="ellipse;whiteSpace=wrap;html=1;aspect=fixed;" vertex="1" parent="1">
          <mxGeometry x="844.5" y="196.5" width="39" height="39" as="geometry" />
        </mxCell>
        <mxCell id="61uXr8QTfpye8QH7Ok3g-167" value="=" style="text;html=1;align=center;verticalAlign=middle;whiteSpace=wrap;rounded=0;" vertex="1" parent="1">
          <mxGeometry x="804.5" y="185.5" width="20" height="20" as="geometry" />
        </mxCell>
        <mxCell id="61uXr8QTfpye8QH7Ok3g-168" value="return(mod_assign)" style="text;html=1;align=center;verticalAlign=middle;whiteSpace=wrap;rounded=0;" vertex="1" parent="1">
          <mxGeometry x="895" y="203" width="130" height="30" as="geometry" />
        </mxCell>
        <mxCell id="61uXr8QTfpye8QH7Ok3g-169" value="&lt;div&gt;&lt;div&gt;ungetc()&lt;/div&gt;&lt;/div&gt;return(mod_op)" style="text;html=1;align=center;verticalAlign=middle;whiteSpace=wrap;rounded=0;" vertex="1" parent="1">
          <mxGeometry x="890" y="126.75" width="150" height="35.5" as="geometry" />
        </mxCell>
        <mxCell id="61uXr8QTfpye8QH7Ok3g-170" value="else" style="text;html=1;align=center;verticalAlign=middle;whiteSpace=wrap;rounded=0;" vertex="1" parent="1">
          <mxGeometry x="774.5" y="120" width="60" height="30" as="geometry" />
        </mxCell>
        <mxCell id="61uXr8QTfpye8QH7Ok3g-171" value="" style="ellipse;whiteSpace=wrap;html=1;aspect=fixed;" vertex="1" parent="1">
          <mxGeometry x="849" y="129.5" width="30" height="30" as="geometry" />
        </mxCell>
        <mxCell id="61uXr8QTfpye8QH7Ok3g-172" value="" style="ellipse;whiteSpace=wrap;html=1;aspect=fixed;" vertex="1" parent="1">
          <mxGeometry x="849" y="201" width="30" height="30" as="geometry" />
        </mxCell>
        <mxCell id="61uXr8QTfpye8QH7Ok3g-173" value="%" style="text;html=1;align=center;verticalAlign=middle;whiteSpace=wrap;rounded=0;" vertex="1" parent="1">
          <mxGeometry x="685" y="71" width="20" height="20" as="geometry" />
        </mxCell>
        <mxCell id="61uXr8QTfpye8QH7Ok3g-179" style="rounded=0;orthogonalLoop=1;jettySize=auto;html=1;entryX=0;entryY=0.5;entryDx=0;entryDy=0;" edge="1" parent="1" source="61uXr8QTfpye8QH7Ok3g-174" target="61uXr8QTfpye8QH7Ok3g-175">
          <mxGeometry relative="1" as="geometry" />
        </mxCell>
        <mxCell id="61uXr8QTfpye8QH7Ok3g-180" style="rounded=0;orthogonalLoop=1;jettySize=auto;html=1;entryX=0;entryY=0.5;entryDx=0;entryDy=0;" edge="1" parent="1" source="61uXr8QTfpye8QH7Ok3g-174" target="61uXr8QTfpye8QH7Ok3g-176">
          <mxGeometry relative="1" as="geometry" />
        </mxCell>
        <mxCell id="61uXr8QTfpye8QH7Ok3g-181" style="rounded=0;orthogonalLoop=1;jettySize=auto;html=1;entryX=0;entryY=0.5;entryDx=0;entryDy=0;" edge="1" parent="1" source="61uXr8QTfpye8QH7Ok3g-174" target="61uXr8QTfpye8QH7Ok3g-177">
          <mxGeometry relative="1" as="geometry" />
        </mxCell>
        <mxCell id="61uXr8QTfpye8QH7Ok3g-182" style="rounded=0;orthogonalLoop=1;jettySize=auto;html=1;entryX=0;entryY=0.5;entryDx=0;entryDy=0;" edge="1" parent="1" source="61uXr8QTfpye8QH7Ok3g-174" target="61uXr8QTfpye8QH7Ok3g-178">
          <mxGeometry relative="1" as="geometry" />
        </mxCell>
        <mxCell id="61uXr8QTfpye8QH7Ok3g-174" value="" style="ellipse;whiteSpace=wrap;html=1;aspect=fixed;" vertex="1" parent="1">
          <mxGeometry x="-430" y="452" width="39" height="39" as="geometry" />
        </mxCell>
        <mxCell id="61uXr8QTfpye8QH7Ok3g-175" value="" style="ellipse;whiteSpace=wrap;html=1;aspect=fixed;" vertex="1" parent="1">
          <mxGeometry x="-330" y="363" width="39" height="39" as="geometry" />
        </mxCell>
        <mxCell id="61uXr8QTfpye8QH7Ok3g-176" value="" style="ellipse;whiteSpace=wrap;html=1;aspect=fixed;" vertex="1" parent="1">
          <mxGeometry x="-330" y="422" width="39" height="39" as="geometry" />
        </mxCell>
        <mxCell id="61uXr8QTfpye8QH7Ok3g-177" value="" style="ellipse;whiteSpace=wrap;html=1;aspect=fixed;" vertex="1" parent="1">
          <mxGeometry x="-330" y="481" width="39" height="39" as="geometry" />
        </mxCell>
        <mxCell id="61uXr8QTfpye8QH7Ok3g-311" style="rounded=0;orthogonalLoop=1;jettySize=auto;html=1;entryX=0;entryY=0.5;entryDx=0;entryDy=0;exitX=0.5;exitY=1;exitDx=0;exitDy=0;" edge="1" parent="1" source="61uXr8QTfpye8QH7Ok3g-178" target="61uXr8QTfpye8QH7Ok3g-309">
          <mxGeometry relative="1" as="geometry">
            <mxPoint x="-260" y="640" as="targetPoint" />
          </mxGeometry>
        </mxCell>
        <mxCell id="61uXr8QTfpye8QH7Ok3g-178" value="" style="ellipse;whiteSpace=wrap;html=1;aspect=fixed;" vertex="1" parent="1">
          <mxGeometry x="-330" y="538" width="39" height="39" as="geometry" />
        </mxCell>
        <mxCell id="61uXr8QTfpye8QH7Ok3g-184" style="rounded=0;orthogonalLoop=1;jettySize=auto;html=1;exitX=1;exitY=0;exitDx=0;exitDy=0;entryX=0;entryY=0.5;entryDx=0;entryDy=0;" edge="1" parent="1" target="61uXr8QTfpye8QH7Ok3g-187">
          <mxGeometry relative="1" as="geometry">
            <mxPoint x="-296.7114177669091" y="368.71141776690956" as="sourcePoint" />
          </mxGeometry>
        </mxCell>
        <mxCell id="61uXr8QTfpye8QH7Ok3g-185" style="rounded=0;orthogonalLoop=1;jettySize=auto;html=1;exitX=1;exitY=0.5;exitDx=0;exitDy=0;entryX=0;entryY=0.5;entryDx=0;entryDy=0;" edge="1" parent="1" target="61uXr8QTfpye8QH7Ok3g-188">
          <mxGeometry relative="1" as="geometry">
            <mxPoint x="-291.00000000003683" y="382.5000000000002" as="sourcePoint" />
          </mxGeometry>
        </mxCell>
        <mxCell id="61uXr8QTfpye8QH7Ok3g-187" value="" style="ellipse;whiteSpace=wrap;html=1;aspect=fixed;" vertex="1" parent="1">
          <mxGeometry x="-230" y="293" width="39" height="39" as="geometry" />
        </mxCell>
        <mxCell id="61uXr8QTfpye8QH7Ok3g-188" value="" style="ellipse;whiteSpace=wrap;html=1;aspect=fixed;" vertex="1" parent="1">
          <mxGeometry x="-230" y="348" width="39" height="39" as="geometry" />
        </mxCell>
        <mxCell id="61uXr8QTfpye8QH7Ok3g-189" value="=" style="text;html=1;align=center;verticalAlign=middle;whiteSpace=wrap;rounded=0;" vertex="1" parent="1">
          <mxGeometry x="-270" y="353" width="20" height="20" as="geometry" />
        </mxCell>
        <mxCell id="61uXr8QTfpye8QH7Ok3g-190" value="return(greater_eq_op)" style="text;html=1;align=center;verticalAlign=middle;whiteSpace=wrap;rounded=0;" vertex="1" parent="1">
          <mxGeometry x="-180" y="352.5" width="120" height="30" as="geometry" />
        </mxCell>
        <mxCell id="61uXr8QTfpye8QH7Ok3g-191" value="&lt;div&gt;ungetc()&lt;/div&gt;return(greater_op)" style="text;html=1;align=center;verticalAlign=middle;whiteSpace=wrap;rounded=0;" vertex="1" parent="1">
          <mxGeometry x="-180" y="293" width="110" height="30" as="geometry" />
        </mxCell>
        <mxCell id="61uXr8QTfpye8QH7Ok3g-192" value="else" style="text;html=1;align=center;verticalAlign=middle;whiteSpace=wrap;rounded=0;" vertex="1" parent="1">
          <mxGeometry x="-320" y="313" width="60" height="30" as="geometry" />
        </mxCell>
        <mxCell id="61uXr8QTfpye8QH7Ok3g-193" value="" style="ellipse;whiteSpace=wrap;html=1;aspect=fixed;" vertex="1" parent="1">
          <mxGeometry x="-225.5" y="297.5" width="30" height="30" as="geometry" />
        </mxCell>
        <mxCell id="61uXr8QTfpye8QH7Ok3g-194" value="" style="ellipse;whiteSpace=wrap;html=1;aspect=fixed;" vertex="1" parent="1">
          <mxGeometry x="-225.5" y="352.5" width="30" height="30" as="geometry" />
        </mxCell>
        <mxCell id="61uXr8QTfpye8QH7Ok3g-197" value="&amp;gt;" style="text;html=1;align=center;verticalAlign=middle;whiteSpace=wrap;rounded=0;" vertex="1" parent="1">
          <mxGeometry x="-391" y="402" width="20" height="20" as="geometry" />
        </mxCell>
        <mxCell id="61uXr8QTfpye8QH7Ok3g-198" style="rounded=0;orthogonalLoop=1;jettySize=auto;html=1;exitX=1;exitY=0;exitDx=0;exitDy=0;entryX=0;entryY=0.5;entryDx=0;entryDy=0;" edge="1" parent="1" target="61uXr8QTfpye8QH7Ok3g-200" source="61uXr8QTfpye8QH7Ok3g-176">
          <mxGeometry relative="1" as="geometry">
            <mxPoint x="-296.7114177669091" y="470.21141776690956" as="sourcePoint" />
          </mxGeometry>
        </mxCell>
        <mxCell id="61uXr8QTfpye8QH7Ok3g-199" style="rounded=0;orthogonalLoop=1;jettySize=auto;html=1;exitX=1;exitY=1;exitDx=0;exitDy=0;entryX=0;entryY=0.5;entryDx=0;entryDy=0;" edge="1" parent="1" target="61uXr8QTfpye8QH7Ok3g-201" source="61uXr8QTfpye8QH7Ok3g-176">
          <mxGeometry relative="1" as="geometry">
            <mxPoint x="-291.00000000003683" y="484.0000000000002" as="sourcePoint" />
          </mxGeometry>
        </mxCell>
        <mxCell id="61uXr8QTfpye8QH7Ok3g-200" value="" style="ellipse;whiteSpace=wrap;html=1;aspect=fixed;" vertex="1" parent="1">
          <mxGeometry x="-230" y="394.5" width="39" height="39" as="geometry" />
        </mxCell>
        <mxCell id="61uXr8QTfpye8QH7Ok3g-201" value="" style="ellipse;whiteSpace=wrap;html=1;aspect=fixed;" vertex="1" parent="1">
          <mxGeometry x="-230" y="449.5" width="39" height="39" as="geometry" />
        </mxCell>
        <mxCell id="61uXr8QTfpye8QH7Ok3g-202" value="=" style="text;html=1;align=center;verticalAlign=middle;whiteSpace=wrap;rounded=0;" vertex="1" parent="1">
          <mxGeometry x="-270" y="441" width="20" height="20" as="geometry" />
        </mxCell>
        <mxCell id="61uXr8QTfpye8QH7Ok3g-203" value="return(less_eq_op)" style="text;html=1;align=center;verticalAlign=middle;whiteSpace=wrap;rounded=0;" vertex="1" parent="1">
          <mxGeometry x="-180" y="454" width="120" height="30" as="geometry" />
        </mxCell>
        <mxCell id="61uXr8QTfpye8QH7Ok3g-204" value="&lt;div&gt;ungetc()&lt;/div&gt;return(less_op)" style="text;html=1;align=center;verticalAlign=middle;whiteSpace=wrap;rounded=0;" vertex="1" parent="1">
          <mxGeometry x="-180" y="394.5" width="110" height="30" as="geometry" />
        </mxCell>
        <mxCell id="61uXr8QTfpye8QH7Ok3g-205" value="" style="ellipse;whiteSpace=wrap;html=1;aspect=fixed;" vertex="1" parent="1">
          <mxGeometry x="-225.5" y="399" width="30" height="30" as="geometry" />
        </mxCell>
        <mxCell id="61uXr8QTfpye8QH7Ok3g-206" value="" style="ellipse;whiteSpace=wrap;html=1;aspect=fixed;" vertex="1" parent="1">
          <mxGeometry x="-225.5" y="454" width="30" height="30" as="geometry" />
        </mxCell>
        <mxCell id="61uXr8QTfpye8QH7Ok3g-207" value="else" style="text;html=1;align=center;verticalAlign=middle;whiteSpace=wrap;rounded=0;" vertex="1" parent="1">
          <mxGeometry x="-300" y="392" width="60" height="30" as="geometry" />
        </mxCell>
        <mxCell id="61uXr8QTfpye8QH7Ok3g-208" value="&amp;lt;" style="text;html=1;align=center;verticalAlign=middle;whiteSpace=wrap;rounded=0;" vertex="1" parent="1">
          <mxGeometry x="-371" y="429.5" width="20" height="20" as="geometry" />
        </mxCell>
        <mxCell id="61uXr8QTfpye8QH7Ok3g-209" style="rounded=0;orthogonalLoop=1;jettySize=auto;html=1;exitX=1;exitY=0.5;exitDx=0;exitDy=0;entryX=0;entryY=0.5;entryDx=0;entryDy=0;" edge="1" parent="1" source="61uXr8QTfpye8QH7Ok3g-177">
          <mxGeometry relative="1" as="geometry">
            <mxPoint x="-291" y="505" as="sourcePoint" />
            <mxPoint x="-224" y="519" as="targetPoint" />
          </mxGeometry>
        </mxCell>
        <mxCell id="61uXr8QTfpye8QH7Ok3g-210" value="=" style="text;html=1;align=center;verticalAlign=middle;whiteSpace=wrap;rounded=0;" vertex="1" parent="1">
          <mxGeometry x="-264" y="491" width="20" height="20" as="geometry" />
        </mxCell>
        <mxCell id="61uXr8QTfpye8QH7Ok3g-211" value="return(relational_eq)" style="text;html=1;align=center;verticalAlign=middle;whiteSpace=wrap;rounded=0;" vertex="1" parent="1">
          <mxGeometry x="-181.25" y="508.5" width="120" height="30" as="geometry" />
        </mxCell>
        <mxCell id="61uXr8QTfpye8QH7Ok3g-212" value="" style="ellipse;whiteSpace=wrap;html=1;aspect=fixed;" vertex="1" parent="1">
          <mxGeometry x="-219.5" y="508.5" width="30" height="30" as="geometry" />
        </mxCell>
        <mxCell id="61uXr8QTfpye8QH7Ok3g-215" value="" style="ellipse;whiteSpace=wrap;html=1;aspect=fixed;" vertex="1" parent="1">
          <mxGeometry x="-242.75" y="551" width="39" height="39" as="geometry" />
        </mxCell>
        <mxCell id="61uXr8QTfpye8QH7Ok3g-216" style="rounded=0;orthogonalLoop=1;jettySize=auto;html=1;exitX=1;exitY=0.5;exitDx=0;exitDy=0;entryX=0;entryY=0.5;entryDx=0;entryDy=0;" edge="1" parent="1" source="61uXr8QTfpye8QH7Ok3g-178">
          <mxGeometry relative="1" as="geometry">
            <mxPoint x="-309.75" y="548" as="sourcePoint" />
            <mxPoint x="-242.75" y="566" as="targetPoint" />
          </mxGeometry>
        </mxCell>
        <mxCell id="61uXr8QTfpye8QH7Ok3g-217" value="=" style="text;html=1;align=center;verticalAlign=middle;whiteSpace=wrap;rounded=0;" vertex="1" parent="1">
          <mxGeometry x="-276.25" y="538.5" width="20" height="20" as="geometry" />
        </mxCell>
        <mxCell id="61uXr8QTfpye8QH7Ok3g-218" value="return(relational_not_eq)" style="text;html=1;align=center;verticalAlign=middle;whiteSpace=wrap;rounded=0;" vertex="1" parent="1">
          <mxGeometry x="-191.25" y="555.5" width="141.25" height="30" as="geometry" />
        </mxCell>
        <mxCell id="61uXr8QTfpye8QH7Ok3g-219" value="" style="ellipse;whiteSpace=wrap;html=1;aspect=fixed;" vertex="1" parent="1">
          <mxGeometry x="-238.25" y="555.5" width="30" height="30" as="geometry" />
        </mxCell>
        <mxCell id="61uXr8QTfpye8QH7Ok3g-220" value="!" style="text;html=1;align=center;verticalAlign=middle;whiteSpace=wrap;rounded=0;" vertex="1" parent="1">
          <mxGeometry x="-351" y="518" width="20" height="20" as="geometry" />
        </mxCell>
        <mxCell id="61uXr8QTfpye8QH7Ok3g-221" value="=" style="text;html=1;align=center;verticalAlign=middle;whiteSpace=wrap;rounded=0;" vertex="1" parent="1">
          <mxGeometry x="-360" y="472" width="20" height="20" as="geometry" />
        </mxCell>
        <mxCell id="61uXr8QTfpye8QH7Ok3g-266" style="rounded=0;orthogonalLoop=1;jettySize=auto;html=1;entryX=0;entryY=0.5;entryDx=0;entryDy=0;" edge="1" parent="1" source="61uXr8QTfpye8QH7Ok3g-270" target="61uXr8QTfpye8QH7Ok3g-271">
          <mxGeometry relative="1" as="geometry" />
        </mxCell>
        <mxCell id="61uXr8QTfpye8QH7Ok3g-267" style="rounded=0;orthogonalLoop=1;jettySize=auto;html=1;entryX=0;entryY=0.5;entryDx=0;entryDy=0;" edge="1" parent="1" source="61uXr8QTfpye8QH7Ok3g-270" target="61uXr8QTfpye8QH7Ok3g-272">
          <mxGeometry relative="1" as="geometry" />
        </mxCell>
        <mxCell id="61uXr8QTfpye8QH7Ok3g-270" value="" style="ellipse;whiteSpace=wrap;html=1;aspect=fixed;" vertex="1" parent="1">
          <mxGeometry x="178.75" y="456.5" width="39" height="39" as="geometry" />
        </mxCell>
        <mxCell id="61uXr8QTfpye8QH7Ok3g-271" value="" style="ellipse;whiteSpace=wrap;html=1;aspect=fixed;" vertex="1" parent="1">
          <mxGeometry x="278.75" y="367.5" width="39" height="39" as="geometry" />
        </mxCell>
        <mxCell id="61uXr8QTfpye8QH7Ok3g-272" value="" style="ellipse;whiteSpace=wrap;html=1;aspect=fixed;" vertex="1" parent="1">
          <mxGeometry x="282" y="459.5" width="39" height="39" as="geometry" />
        </mxCell>
        <mxCell id="61uXr8QTfpye8QH7Ok3g-275" style="rounded=0;orthogonalLoop=1;jettySize=auto;html=1;exitX=1;exitY=0;exitDx=0;exitDy=0;entryX=0;entryY=0.5;entryDx=0;entryDy=0;" edge="1" parent="1" target="61uXr8QTfpye8QH7Ok3g-277">
          <mxGeometry relative="1" as="geometry">
            <mxPoint x="312.0385822330909" y="373.21141776690956" as="sourcePoint" />
          </mxGeometry>
        </mxCell>
        <mxCell id="61uXr8QTfpye8QH7Ok3g-276" style="rounded=0;orthogonalLoop=1;jettySize=auto;html=1;exitX=1;exitY=0.5;exitDx=0;exitDy=0;entryX=0;entryY=0.5;entryDx=0;entryDy=0;" edge="1" parent="1" target="61uXr8QTfpye8QH7Ok3g-278">
          <mxGeometry relative="1" as="geometry">
            <mxPoint x="317.74999999996317" y="387.0000000000002" as="sourcePoint" />
          </mxGeometry>
        </mxCell>
        <mxCell id="61uXr8QTfpye8QH7Ok3g-277" value="" style="ellipse;whiteSpace=wrap;html=1;aspect=fixed;" vertex="1" parent="1">
          <mxGeometry x="378.75" y="297.5" width="39" height="39" as="geometry" />
        </mxCell>
        <mxCell id="61uXr8QTfpye8QH7Ok3g-278" value="" style="ellipse;whiteSpace=wrap;html=1;aspect=fixed;" vertex="1" parent="1">
          <mxGeometry x="378.75" y="352.5" width="39" height="39" as="geometry" />
        </mxCell>
        <mxCell id="61uXr8QTfpye8QH7Ok3g-279" value="&amp;amp;" style="text;html=1;align=center;verticalAlign=middle;whiteSpace=wrap;rounded=0;" vertex="1" parent="1">
          <mxGeometry x="338.75" y="357.5" width="20" height="20" as="geometry" />
        </mxCell>
        <mxCell id="61uXr8QTfpye8QH7Ok3g-280" value="return(logical_AND)" style="text;html=1;align=center;verticalAlign=middle;whiteSpace=wrap;rounded=0;" vertex="1" parent="1">
          <mxGeometry x="428.75" y="357" width="120" height="30" as="geometry" />
        </mxCell>
        <mxCell id="61uXr8QTfpye8QH7Ok3g-281" value="&lt;div&gt;ungetc()&lt;/div&gt;return(ambersand)" style="text;html=1;align=center;verticalAlign=middle;whiteSpace=wrap;rounded=0;" vertex="1" parent="1">
          <mxGeometry x="428.75" y="297.5" width="110" height="30" as="geometry" />
        </mxCell>
        <mxCell id="61uXr8QTfpye8QH7Ok3g-282" value="else" style="text;html=1;align=center;verticalAlign=middle;whiteSpace=wrap;rounded=0;" vertex="1" parent="1">
          <mxGeometry x="288.75" y="317.5" width="60" height="30" as="geometry" />
        </mxCell>
        <mxCell id="61uXr8QTfpye8QH7Ok3g-283" value="" style="ellipse;whiteSpace=wrap;html=1;aspect=fixed;" vertex="1" parent="1">
          <mxGeometry x="383.25" y="302" width="30" height="30" as="geometry" />
        </mxCell>
        <mxCell id="61uXr8QTfpye8QH7Ok3g-284" value="" style="ellipse;whiteSpace=wrap;html=1;aspect=fixed;" vertex="1" parent="1">
          <mxGeometry x="383.25" y="357" width="30" height="30" as="geometry" />
        </mxCell>
        <mxCell id="61uXr8QTfpye8QH7Ok3g-285" value="&amp;amp;" style="text;html=1;align=center;verticalAlign=middle;whiteSpace=wrap;rounded=0;" vertex="1" parent="1">
          <mxGeometry x="217.75" y="406.5" width="20" height="20" as="geometry" />
        </mxCell>
        <mxCell id="61uXr8QTfpye8QH7Ok3g-286" style="rounded=0;orthogonalLoop=1;jettySize=auto;html=1;exitX=1;exitY=0;exitDx=0;exitDy=0;entryX=0;entryY=0.5;entryDx=0;entryDy=0;" edge="1" parent="1" source="61uXr8QTfpye8QH7Ok3g-272" target="61uXr8QTfpye8QH7Ok3g-288">
          <mxGeometry relative="1" as="geometry">
            <mxPoint x="315.2885822330909" y="507.71141776690956" as="sourcePoint" />
          </mxGeometry>
        </mxCell>
        <mxCell id="61uXr8QTfpye8QH7Ok3g-287" style="rounded=0;orthogonalLoop=1;jettySize=auto;html=1;exitX=1;exitY=1;exitDx=0;exitDy=0;entryX=0;entryY=0.5;entryDx=0;entryDy=0;" edge="1" parent="1" source="61uXr8QTfpye8QH7Ok3g-272" target="61uXr8QTfpye8QH7Ok3g-289">
          <mxGeometry relative="1" as="geometry">
            <mxPoint x="320.99999999996317" y="521.5000000000002" as="sourcePoint" />
          </mxGeometry>
        </mxCell>
        <mxCell id="61uXr8QTfpye8QH7Ok3g-288" value="" style="ellipse;whiteSpace=wrap;html=1;aspect=fixed;" vertex="1" parent="1">
          <mxGeometry x="382" y="432" width="39" height="39" as="geometry" />
        </mxCell>
        <mxCell id="61uXr8QTfpye8QH7Ok3g-289" value="" style="ellipse;whiteSpace=wrap;html=1;aspect=fixed;" vertex="1" parent="1">
          <mxGeometry x="382" y="487" width="39" height="39" as="geometry" />
        </mxCell>
        <mxCell id="61uXr8QTfpye8QH7Ok3g-290" value="|" style="text;html=1;align=center;verticalAlign=middle;whiteSpace=wrap;rounded=0;" vertex="1" parent="1">
          <mxGeometry x="342" y="478.5" width="20" height="20" as="geometry" />
        </mxCell>
        <mxCell id="61uXr8QTfpye8QH7Ok3g-291" value="return(logical_OR)" style="text;html=1;align=center;verticalAlign=middle;whiteSpace=wrap;rounded=0;" vertex="1" parent="1">
          <mxGeometry x="432" y="491.5" width="120" height="30" as="geometry" />
        </mxCell>
        <mxCell id="61uXr8QTfpye8QH7Ok3g-292" value="&lt;div&gt;ungetc()&lt;/div&gt;return(vertical_bar)" style="text;html=1;align=center;verticalAlign=middle;whiteSpace=wrap;rounded=0;" vertex="1" parent="1">
          <mxGeometry x="432" y="432" width="110" height="30" as="geometry" />
        </mxCell>
        <mxCell id="61uXr8QTfpye8QH7Ok3g-293" value="" style="ellipse;whiteSpace=wrap;html=1;aspect=fixed;" vertex="1" parent="1">
          <mxGeometry x="386.5" y="436.5" width="30" height="30" as="geometry" />
        </mxCell>
        <mxCell id="61uXr8QTfpye8QH7Ok3g-294" value="" style="ellipse;whiteSpace=wrap;html=1;aspect=fixed;" vertex="1" parent="1">
          <mxGeometry x="386.5" y="491.5" width="30" height="30" as="geometry" />
        </mxCell>
        <mxCell id="61uXr8QTfpye8QH7Ok3g-295" value="else" style="text;html=1;align=center;verticalAlign=middle;whiteSpace=wrap;rounded=0;" vertex="1" parent="1">
          <mxGeometry x="312" y="429.5" width="60" height="30" as="geometry" />
        </mxCell>
        <mxCell id="61uXr8QTfpye8QH7Ok3g-296" value="|" style="text;html=1;align=center;verticalAlign=middle;whiteSpace=wrap;rounded=0;" vertex="1" parent="1">
          <mxGeometry x="237.75" y="434" width="20" height="20" as="geometry" />
        </mxCell>
        <mxCell id="61uXr8QTfpye8QH7Ok3g-309" value="" style="ellipse;whiteSpace=wrap;html=1;aspect=fixed;" vertex="1" parent="1">
          <mxGeometry x="-240" y="615.5" width="39" height="39" as="geometry" />
        </mxCell>
        <mxCell id="61uXr8QTfpye8QH7Ok3g-310" value="" style="ellipse;whiteSpace=wrap;html=1;aspect=fixed;" vertex="1" parent="1">
          <mxGeometry x="-235.5" y="620" width="30" height="30" as="geometry" />
        </mxCell>
        <mxCell id="61uXr8QTfpye8QH7Ok3g-312" value="else" style="text;html=1;align=center;verticalAlign=middle;whiteSpace=wrap;rounded=0;" vertex="1" parent="1">
          <mxGeometry x="-320" y="615.5" width="60" height="30" as="geometry" />
        </mxCell>
        <mxCell id="61uXr8QTfpye8QH7Ok3g-313" value="&lt;div&gt;ungetc()&lt;/div&gt;return(logical_NOT)" style="text;html=1;align=center;verticalAlign=middle;whiteSpace=wrap;rounded=0;" vertex="1" parent="1">
          <mxGeometry x="-191.25" y="626" width="141.25" height="30" as="geometry" />
        </mxCell>
      </root>
    </mxGraphModel>
  </diagram>
</mxfile>
